<svg viewBox="0 0 58 17" fill="none" xmlns="http://www.w3.org/2000/svg">
<path d="M7.21195 0.614005C7.36841 0.612477 7.52487 0.610949 7.68607 0.609375C8.9006 0.613364 10.0958 0.736899 11.1802 1.32193C11.1049 2.23817 10.9145 3.07552 10.6522 3.95608C10.184 4.07126 9.98213 4.08527 9.4972 3.96431C8.18928 3.64462 6.59853 3.62804 5.3722 4.21949C5.28049 4.2565 5.18877 4.29352 5.09428 4.33165C4.7804 4.5215 4.71613 4.67277 4.5802 5.00974C4.53511 5.11415 4.49002 5.21856 4.44356 5.32614C4.39881 5.43633 4.35406 5.54652 4.30795 5.66004C4.26286 5.76989 4.21777 5.87974 4.17131 5.99291C3.63423 7.4985 3.67702 9.73911 4.3162 11.2C4.7476 11.9891 5.29701 12.5144 6.1642 12.7805C6.57475 12.8115 6.98204 12.8053 7.39345 12.7969C7.77188 12.7915 8.15031 12.7861 8.5402 12.7805C8.5402 11.8677 8.5402 10.955 8.5402 10.0146C7.84324 10.0146 7.14628 10.0146 6.4282 10.0146C6.4282 9.05842 6.4282 8.10222 6.4282 7.11705C8.1706 7.11705 9.913 7.11705 11.7082 7.11705C11.7082 9.6814 11.7082 12.2457 11.7082 14.8878C9.47189 16.0035 6.98315 16.4387 4.50595 15.7274C4.12903 15.5803 4.12903 15.5803 3.7882 15.4146C3.60928 15.3285 3.60928 15.3285 3.42675 15.2407C1.98346 14.4599 1.27144 13.304 0.770604 11.7752C0.467296 10.6726 0.420223 9.60235 0.430453 8.46705C0.430989 8.32773 0.430989 8.32773 0.431536 8.18559C0.444566 5.95647 0.743025 3.78696 2.33569 2.088C3.74129 0.816733 5.37845 0.596157 7.21195 0.614005Z" />
<path d="M26.0057 1.17529C26.1377 1.17598 26.2698 1.17667 26.4058 1.17738C26.5341 1.17771 26.6624 1.17804 26.7946 1.17838C27.0409 1.18018 27.0409 1.18018 27.2922 1.18201C27.8121 1.18473 28.3321 1.18745 28.8679 1.19025C28.8679 2.97224 28.8679 4.75424 28.8679 6.59024C30.2183 6.59024 31.5686 6.59024 32.9599 6.59024C32.9599 4.80824 32.9599 3.02624 32.9599 1.19025C34.0489 1.19025 35.1379 1.19025 36.2599 1.19025C36.2629 3.05977 36.2653 4.9293 36.2667 6.79883C36.2674 7.66683 36.2684 8.53482 36.2699 9.40282C36.2713 10.2397 36.2721 11.0766 36.2724 11.9135C36.2727 12.2336 36.2731 12.5537 36.2739 12.8737C36.2748 13.3203 36.2749 13.7669 36.2749 14.2135C36.2754 14.3473 36.2758 14.4811 36.2763 14.6189C36.2761 14.7399 36.276 14.8608 36.2758 14.9855C36.2759 15.0912 36.276 15.197 36.2761 15.3059C36.2599 15.5463 36.2599 15.5463 36.1279 15.678C35.8928 15.6895 35.6573 15.6921 35.422 15.6909C35.2937 15.6906 35.1654 15.6903 35.0332 15.6899C34.869 15.6887 34.7048 15.6875 34.5356 15.6863C34.0157 15.6836 33.4957 15.6808 32.9599 15.678C32.9599 13.6353 32.9599 11.5925 32.9599 9.48781C31.6095 9.48781 30.2592 9.48781 28.8679 9.48781C28.8679 11.5306 28.8679 13.5734 28.8679 15.678C28.3479 15.6808 27.8279 15.6835 27.2922 15.6863C27.0459 15.6881 27.0459 15.6881 26.7946 15.6899C26.6663 15.6902 26.538 15.6906 26.4058 15.6909C26.2077 15.6919 26.2077 15.6919 26.0057 15.693C25.6999 15.678 25.6999 15.678 25.5679 15.5463C25.555 15.3617 25.5512 15.1764 25.5511 14.9914C25.5508 14.8717 25.5504 14.752 25.55 14.6287C25.5503 14.4964 25.5505 14.3641 25.5508 14.2277C25.5506 14.0892 25.5504 13.9506 25.5501 13.8079C25.5495 13.3474 25.5499 12.887 25.5504 12.4265C25.5503 12.1081 25.5502 11.7897 25.55 11.4713C25.5498 10.803 25.5501 10.1346 25.5507 9.46633C25.5514 8.60749 25.551 7.74867 25.5502 6.88984C25.5497 6.23204 25.5499 5.57425 25.5502 4.91646C25.5503 4.59969 25.5502 4.28292 25.5499 3.96615C25.5496 3.52429 25.5501 3.08243 25.5508 2.64057C25.5506 2.50824 25.5503 2.37591 25.55 2.23957C25.5506 2.06006 25.5506 2.06006 25.5511 1.87692C25.5512 1.77231 25.5512 1.66771 25.5513 1.55994C25.5768 1.19432 25.6391 1.19322 26.0057 1.17529Z" />
<path d="M48.0078 1.19019C49.0533 1.19019 50.0987 1.19019 51.1758 1.19019C51.3078 1.32189 51.3078 1.32189 51.3228 1.76001C51.3228 1.95439 51.322 2.14876 51.3207 2.34314C51.3205 2.44527 51.3203 2.5474 51.3201 2.65263C51.3194 2.98009 51.3177 3.30754 51.3161 3.635C51.3154 3.85649 51.3148 4.07797 51.3143 4.29946C51.3128 4.84352 51.3105 5.38759 51.3078 5.93165C51.3795 5.90418 51.4513 5.8767 51.5252 5.8484C51.6669 5.79462 51.6669 5.79462 51.8116 5.73975C51.9518 5.68631 51.9518 5.68631 52.0949 5.6318C53.2925 5.20743 54.5023 5.34628 55.6638 5.79994C56.4752 6.18917 56.8812 6.84607 57.2478 7.64384C57.5636 8.59228 57.5557 9.51537 57.5531 10.5085C57.5552 10.6664 57.5573 10.8243 57.5595 10.9869C57.5603 12.5334 57.369 14.0565 56.265 15.2206C55.4863 15.9224 54.6587 15.9926 53.6591 15.9908C53.5483 15.9908 53.4375 15.9908 53.3234 15.9907C52.266 15.9714 51.4005 15.7397 50.5158 15.1512C50.4723 15.325 50.4287 15.4989 50.3838 15.678C49.5997 15.678 48.8157 15.678 48.0078 15.678C48.0078 10.897 48.0078 6.11604 48.0078 1.19019ZM51.1758 8.5658C51.1758 10.0001 51.1758 11.4344 51.1758 12.9121C52.0391 13.2813 52.5198 13.4397 53.4198 13.3073C53.9271 13.0542 54.0449 12.8683 54.2531 12.3441C54.5256 10.9505 54.4863 9.59292 53.7498 8.36823C52.8912 7.85424 52.0069 8.15118 51.1758 8.5658Z" />
<path d="M37.4479 5.80005C38.5369 5.80005 39.6259 5.80005 40.7479 5.80005C40.7528 6.28833 40.7577 6.77662 40.7628 7.2797C40.7689 7.75221 40.7757 8.22472 40.7825 8.69722C40.7869 9.0258 40.7906 9.35438 40.7936 9.68297C40.798 10.1551 40.8049 10.6271 40.8123 11.0992C40.8132 11.2463 40.814 11.3934 40.8149 11.5449C40.8188 11.7506 40.8188 11.7506 40.8228 11.9603C40.8243 12.0808 40.8257 12.2013 40.8272 12.3255C40.8898 12.7098 41.0107 12.8937 41.2759 13.1757C41.544 13.2539 41.544 13.2539 41.8369 13.2333C41.9328 13.2331 42.0288 13.2329 42.1277 13.2328C42.5768 13.1699 42.5768 13.1699 43.3879 12.7805C43.4314 10.477 43.475 8.17341 43.5199 5.80005C44.5653 5.80005 45.6107 5.80005 46.6879 5.80005C46.6879 9.0598 46.6879 12.3196 46.6879 15.6781C45.9473 15.6781 45.2068 15.6781 44.4439 15.6781C44.3567 15.5477 44.2696 15.4173 44.1799 15.283C44.0866 15.3305 43.9934 15.3781 43.8973 15.427C42.9428 15.8578 42.1439 16.0066 41.1026 16.0074C40.9924 16.0081 40.8822 16.0089 40.7686 16.0097C39.8014 15.9905 38.8843 15.7753 38.1483 15.0998C37.3574 14.1273 37.3764 12.9318 37.3963 11.7423C37.397 11.5717 37.3978 11.4011 37.3986 11.2253C37.4006 10.7762 37.4057 10.3272 37.4116 9.87813C37.4171 9.4181 37.4194 8.95805 37.4221 8.49799C37.4277 7.59864 37.437 6.69936 37.4479 5.80005Z" />
<path d="M18.9682 2.90247C20.0137 2.90247 21.0591 2.90247 22.1362 2.90247C22.1362 3.8152 22.1362 4.72793 22.1362 5.66832C22.8253 5.66311 22.8253 5.66311 23.5145 5.65645C23.7591 5.65551 24.0037 5.6617 24.2482 5.66832C24.3802 5.80003 24.3802 5.80003 24.3952 6.05679C24.3945 6.16645 24.3938 6.27612 24.3931 6.38911C24.3927 6.50753 24.3923 6.62595 24.3918 6.74796C24.3902 6.93476 24.3902 6.93476 24.3885 7.12533C24.3879 7.25037 24.3873 7.37542 24.3867 7.50425C24.3851 7.81423 24.3827 8.1242 24.3802 8.43417C23.6397 8.43417 22.8992 8.43417 22.1362 8.43417C22.149 9.00607 22.1626 9.57784 22.1781 10.1496C22.1832 10.3441 22.1878 10.5385 22.1919 10.7329C22.198 11.0128 22.2056 11.2927 22.2136 11.5725C22.2177 11.7408 22.2219 11.9091 22.2261 12.0825C22.265 12.4839 22.298 12.7191 22.5322 13.0439C23.041 13.2132 23.5308 13.2312 24.0636 13.2703C24.3802 13.3073 24.3802 13.3073 24.5122 13.4391C24.5289 13.7892 24.5367 14.1343 24.537 14.4845C24.5386 14.5822 24.5402 14.6799 24.5419 14.7806C24.5426 15.036 24.5283 15.2914 24.5122 15.5464C23.935 16.1224 22.9783 15.9817 22.206 15.9832C21.3043 15.9676 20.5267 15.827 19.8123 15.2408C19.0383 14.4118 18.909 13.4187 18.9296 12.3442C18.9301 12.2317 18.9307 12.1192 18.9313 12.0033C18.9334 11.6477 18.9384 11.2922 18.9435 10.9366C18.9455 10.6939 18.9473 10.4513 18.9489 10.2086C18.9532 9.6171 18.9601 9.02565 18.9682 8.43417C18.799 8.43646 18.799 8.43646 18.6264 8.4388C18.4805 8.43999 18.3347 8.44118 18.1845 8.4424C18.039 8.44393 17.8935 8.44546 17.7436 8.44703C17.3842 8.43417 17.3842 8.43417 17.2522 8.30247C17.2426 7.96918 17.24 7.63958 17.244 7.30643C17.2446 7.2128 17.2452 7.11916 17.2458 7.02269C17.2473 6.79074 17.2497 6.5588 17.2522 6.32686C17.8685 6.044 18.2735 5.91555 18.9682 5.80003C18.9682 4.84383 18.9682 3.88764 18.9682 2.90247Z" />
<path d="M14.0469 5.65078C14.17 5.65061 14.293 5.65044 14.4197 5.65027C14.6129 5.65103 14.6129 5.65103 14.8101 5.65181C14.9389 5.6513 15.0677 5.65079 15.2004 5.65027C15.3849 5.65052 15.3849 5.65052 15.5732 5.65078C15.6863 5.65093 15.7993 5.65108 15.9158 5.65123C16.1961 5.66828 16.1961 5.66828 16.4601 5.79998C16.4631 7.06847 16.4655 8.33696 16.4669 9.60545C16.4676 10.1944 16.4685 10.7834 16.47 11.3723C16.4715 11.9402 16.4722 12.5081 16.4726 13.076C16.4728 13.2931 16.4733 13.5103 16.474 13.7274C16.475 14.0305 16.4751 14.3336 16.475 14.6367C16.4753 14.8095 16.4756 14.9824 16.4759 15.1605C16.4601 15.5463 16.4601 15.5463 16.3281 15.678C16.1042 15.6911 15.8799 15.6953 15.6557 15.6955C15.5197 15.6957 15.3838 15.6959 15.2437 15.696C15.0291 15.6953 15.0291 15.6953 14.8101 15.6945C14.667 15.695 14.5239 15.6955 14.3764 15.696C14.2405 15.6959 14.1045 15.6957 13.9644 15.6955C13.8388 15.6954 13.7131 15.6952 13.5836 15.6951C13.2921 15.678 13.2921 15.678 13.1601 15.5463C13.1476 15.2433 13.1446 14.9399 13.1451 14.6367C13.1451 14.5416 13.145 14.4465 13.145 14.3486C13.1451 14.0329 13.1461 13.7172 13.1472 13.4014C13.1474 13.1831 13.1476 12.9648 13.1477 12.7465C13.1482 12.1707 13.1495 11.595 13.151 11.0192C13.1523 10.4322 13.153 9.84513 13.1536 9.25807C13.155 8.10537 13.1573 6.95268 13.1601 5.79998C13.4807 5.64003 13.689 5.65125 14.0469 5.65078Z" />
<path d="M15.6927 1.60186C16.1563 1.91025 16.3527 2.13412 16.5919 2.63906C16.6964 3.29306 16.66 3.80035 16.3939 4.40888C15.9697 4.84277 15.6097 5.04848 15.0079 5.1415C14.3553 5.11545 13.9321 4.96902 13.4239 4.55705C12.9607 3.96483 12.9397 3.36407 13.0279 2.63906C13.5662 1.52359 14.5371 1.1949 15.6927 1.60186Z" />
</svg>
