<svg width="84" height="21" viewBox="0 0 84 21" fill="none" xmlns="http://www.w3.org/2000/svg">
<g clip-path="url(#clip0_22_176)">
<path d="M61.4001 -0.00521966C61.4458 -0.00535687 61.4458 -0.00535687 61.4923 -0.00549686C61.595 -0.00575703 61.6976 -0.00573921 61.8003 -0.00572327C61.8743 -0.00585155 61.9484 -0.00599643 62.0225 -0.00615655C62.2266 -0.00654654 62.4307 -0.00669081 62.6347 -0.00679391C62.8546 -0.0069456 63.0746 -0.0073181 63.2945 -0.00765774C63.8258 -0.00842663 64.3571 -0.00881786 64.8885 -0.00916383C65.1386 -0.00933423 65.3887 -0.00954295 65.6389 -0.00974673C66.4703 -0.0104083 67.3016 -0.010973 68.133 -0.0112536C68.1868 -0.0112721 68.2405 -0.0112906 68.2943 -0.0113091C68.3343 -0.0113229 68.3343 -0.0113229 68.3751 -0.011337C68.5102 -0.0113837 68.6453 -0.011431 68.7804 -0.0114786C68.8072 -0.011488 68.834 -0.0114973 68.8616 -0.0115069C69.7307 -0.0118138 70.5998 -0.012725 71.4689 -0.0139891C72.3879 -0.0153234 73.3068 -0.0160895 74.2257 -0.0162176C74.7266 -0.0163018 75.2275 -0.0166426 75.7284 -0.0176355C76.155 -0.0184791 76.5815 -0.018793 77.0081 -0.0184146C77.2257 -0.0182377 77.4433 -0.0183126 77.6609 -0.0190664C77.8603 -0.0197509 78.0596 -0.0197142 78.2589 -0.0191093C78.3309 -0.0190167 78.4029 -0.019186 78.475 -0.0196471C79.0443 -0.0230662 79.475 0.0393672 79.8989 0.466667C80.2927 0.924589 80.3009 1.49444 80.298 2.07056C80.2981 2.14571 80.2984 2.22085 80.2987 2.296C80.2993 2.50139 80.299 2.70678 80.2985 2.91217C80.2982 3.13411 80.2987 3.35605 80.2991 3.57798C80.2998 4.01232 80.2997 4.44666 80.2992 4.881C80.2989 5.23407 80.2988 5.58714 80.299 5.94021C80.299 5.99051 80.299 6.04081 80.2991 6.09263C80.2991 6.19482 80.2992 6.297 80.2992 6.39919C80.2996 7.32955 80.2992 8.25991 80.2984 9.19028C80.2977 10.0388 80.2977 10.8874 80.2985 11.736C80.2993 12.6903 80.2996 13.6445 80.2991 14.5988C80.2991 14.7006 80.299 14.8024 80.299 14.9042C80.299 14.9543 80.2989 15.0044 80.2989 15.056C80.2988 15.4086 80.299 15.7611 80.2994 16.1137C80.2998 16.5434 80.2997 16.9732 80.2989 17.403C80.2985 17.6222 80.2983 17.8413 80.2988 18.0605C80.2993 18.2614 80.299 18.4622 80.2982 18.663C80.298 18.7355 80.2981 18.8079 80.2985 18.8804C80.3013 19.4825 80.2453 19.9692 79.8216 20.4214C79.6267 20.6132 79.4354 20.7248 79.1774 20.8056C79.1567 20.8124 79.1359 20.8193 79.1146 20.8264C78.9865 20.8524 78.8595 20.8499 78.7295 20.8497C78.6993 20.8498 78.6691 20.8498 78.6381 20.8499C78.5364 20.8502 78.4347 20.8502 78.333 20.8502C78.2596 20.8503 78.1862 20.8504 78.1128 20.8506C77.9106 20.851 77.7084 20.8511 77.5062 20.8512C77.2883 20.8514 77.0704 20.8518 76.8525 20.8521C76.326 20.8529 75.7995 20.8533 75.273 20.8536C75.0251 20.8538 74.7772 20.854 74.5293 20.8542C73.7053 20.8549 72.8813 20.8554 72.0573 20.8557C72.004 20.8557 71.9507 20.8557 71.8974 20.8558C71.8578 20.8558 71.8578 20.8558 71.8173 20.8558C71.6834 20.8558 71.5495 20.8559 71.4156 20.8559C71.3758 20.8559 71.3758 20.8559 71.3351 20.856C70.4739 20.8563 69.6127 20.8572 68.7515 20.8584C67.8408 20.8598 66.9301 20.8605 66.0194 20.8607C65.5231 20.8607 65.0267 20.8611 64.5304 20.8621C64.1076 20.8629 63.6849 20.8632 63.2621 20.8629C63.0465 20.8627 62.8309 20.8628 62.6152 20.8635C62.4176 20.8642 62.22 20.8642 62.0224 20.8636C61.9511 20.8635 61.8798 20.8636 61.8085 20.8641C61.2534 20.8675 60.764 20.8287 60.342 20.4167C60.3206 20.3963 60.2992 20.376 60.2771 20.355C59.9418 19.9986 59.8801 19.523 59.8814 19.0496C59.8813 19.0191 59.8812 18.9886 59.8812 18.9572C59.881 18.8553 59.8811 18.7534 59.8812 18.6515C59.8811 18.5776 59.881 18.5037 59.8809 18.4298C59.8807 18.2269 59.8807 18.024 59.8807 17.8212C59.8808 17.6023 59.8805 17.3834 59.8804 17.1645C59.88 16.7357 59.8799 16.307 59.8799 15.8782C59.8799 15.5297 59.8798 15.1812 59.8797 14.8327C59.8794 14.0054 59.8792 13.1781 59.8792 12.3508C59.8792 12.3244 59.8792 12.2979 59.8792 12.2707C59.8792 12.1366 59.8792 12.0026 59.8792 11.8685C59.8792 11.8419 59.8792 11.8153 59.8792 11.7879C59.8792 11.734 59.8792 11.6802 59.8792 11.6263C59.8793 10.7888 59.879 9.95121 59.8784 9.11364C59.8779 8.17231 59.8775 7.23098 59.8776 6.28965C59.8776 5.79135 59.8775 5.29306 59.8771 4.79476C59.8767 4.37054 59.8766 3.94632 59.8769 3.52209C59.877 3.30568 59.877 3.08928 59.8767 2.87286C59.8764 2.67465 59.8765 2.47644 59.8768 2.27822C59.8768 2.20662 59.8768 2.13502 59.8766 2.06342C59.8748 1.43984 59.8904 0.896149 60.3277 0.415625C60.6388 0.112325 60.9787 -0.00607691 61.4001 -0.00521966ZM63.3799 3.26667C63.3423 3.29474 63.3047 3.32281 63.266 3.35174C62.9962 3.58822 62.8102 3.96441 62.7344 4.31667C62.6975 4.94139 62.7896 5.37904 63.1776 5.87572C63.4447 6.1802 63.8506 6.40113 64.2511 6.42593C64.8115 6.43974 65.2186 6.32273 65.6465 5.93542C66.0069 5.51652 66.2127 5.08665 66.1877 4.51597C66.1329 4.0235 65.9232 3.62078 65.5607 3.29568C64.8888 2.76274 64.0635 2.75334 63.3799 3.26667ZM71.1268 8.67222C70.9198 8.90038 70.9198 8.90038 70.823 9.17778C70.7854 9.17778 70.7478 9.17778 70.709 9.17778C70.709 8.72861 70.709 8.27944 70.709 7.81667C69.7692 7.81667 68.8293 7.81667 67.8609 7.81667C67.8609 11.0892 67.8609 14.3617 67.8609 17.7333C68.8384 17.7333 69.8159 17.7333 70.823 17.7333C70.8248 17.3662 70.8267 16.999 70.8286 16.6207C70.83 16.3868 70.8313 16.1529 70.8328 15.9189C70.835 15.5484 70.8373 15.1779 70.839 14.8073C70.8403 14.5373 70.8418 14.2673 70.8436 13.9974C70.8445 13.8548 70.8454 13.7121 70.8459 13.5695C70.8544 11.335 70.8544 11.335 71.3926 10.7333C71.8026 10.331 72.3005 10.29 72.8392 10.2974C73.1913 10.3084 73.4798 10.416 73.747 10.6556C74.1921 11.1671 74.2139 11.915 74.2148 12.5635C74.2152 12.6203 74.2156 12.6771 74.216 12.7339C74.217 12.8863 74.2176 13.0388 74.2181 13.1913C74.2187 13.3512 74.2197 13.5112 74.2207 13.6711C74.2224 13.9733 74.2238 14.2755 74.2251 14.5776C74.2268 14.9865 74.2291 15.3953 74.2314 15.8041C74.235 16.4472 74.2378 17.0903 74.2407 17.7333C75.2307 17.7333 76.2207 17.7333 77.2407 17.7333C77.2429 16.7231 77.2429 16.7231 77.2444 15.7129C77.2449 15.3001 77.2454 14.8873 77.2464 14.4744C77.2472 14.1735 77.2477 13.8727 77.2478 13.5718C77.2479 13.413 77.2482 13.2542 77.2487 13.0954C77.2508 12.4963 77.2483 11.8995 77.2076 11.3015C77.2033 11.2381 77.2033 11.2381 77.1989 11.1734C77.1136 10.0718 76.8303 9.03761 76.0089 8.27361C74.6186 7.11962 72.3163 7.36504 71.1268 8.67222ZM62.9622 7.81667C62.9622 11.0892 62.9622 14.3617 62.9622 17.7333C63.9397 17.7333 64.9172 17.7333 65.9242 17.7333C65.9242 14.4608 65.9242 11.1883 65.9242 7.81667C64.9468 7.81667 63.9693 7.81667 62.9622 7.81667Z"/>
<path d="M53.886 3.07224C54.8885 3.07224 55.891 3.07224 56.9239 3.07224C56.9239 7.92324 56.9239 12.7742 56.9239 17.7722C55.9966 17.7722 55.0693 17.7722 54.1138 17.7722C54.1013 17.3616 54.0888 16.9509 54.0758 16.5278C54.01 16.604 53.9443 16.6802 53.8765 16.7587C53.3451 17.354 52.6701 17.7312 51.9113 17.9278C51.8569 17.9421 51.8569 17.9421 51.8014 17.9567C50.6875 18.1949 49.3565 17.9035 48.4057 17.2715C47.2698 16.4539 46.601 15.3343 46.3483 13.9386C46.117 12.3429 46.362 10.5963 47.3116 9.27244C47.3862 9.17342 47.4647 9.07824 47.5442 8.98335C47.5709 8.94971 47.5976 8.91607 47.6252 8.88142C48.2882 8.07837 49.2876 7.57525 50.3053 7.47329C51.3002 7.39772 52.535 7.51286 53.3352 8.19721C53.4474 8.29916 53.5533 8.40675 53.6581 8.51668C53.7208 8.58085 53.7834 8.64501 53.848 8.71112C53.8668 5.91987 53.8668 5.91987 53.886 3.07224ZM49.8354 11.0532C49.3918 11.6574 49.2512 12.4508 49.3478 13.189C49.4201 13.6589 49.587 14.0443 49.8606 14.4278C49.8888 14.4679 49.917 14.508 49.9461 14.5493C50.3843 15.0185 50.9928 15.2389 51.6163 15.2602C52.3219 15.2695 52.9433 15.0849 53.4682 14.5833C53.9933 14.0165 54.1318 13.3129 54.122 12.556C54.1014 11.8838 53.8447 11.2554 53.3733 10.7844C52.3576 9.93798 50.69 10.0089 49.8354 11.0532Z"/>
<path d="M25.9365 3.07224C26.9516 3.07224 27.9667 3.07224 29.0125 3.07224C29.025 5.92124 29.0375 8.77024 29.0504 11.7056C29.2134 11.5131 29.3763 11.3206 29.5441 11.1222C29.6843 10.9568 29.6843 10.9568 29.7399 10.8912C29.9383 10.657 30.1357 10.4218 30.3323 10.186C30.4435 10.053 30.5565 9.92217 30.6715 9.79272C30.7865 9.66304 30.8962 9.5304 31.0038 9.39411C31.1504 9.20846 31.3052 9.03258 31.463 8.85696C31.5841 8.71884 31.6972 8.57487 31.8109 8.4304C31.9354 8.27675 32.0672 8.13067 32.1998 7.98439C32.2826 7.89376 32.2826 7.89376 32.3542 7.77779C32.4223 7.76344 32.4223 7.76344 32.5061 7.76376C32.5378 7.7636 32.5696 7.76344 32.6023 7.76328C32.6372 7.76369 32.672 7.76411 32.708 7.76455C32.7447 7.76453 32.7813 7.76451 32.8191 7.76449C32.9408 7.76458 33.0624 7.76548 33.1841 7.7664C33.2682 7.76662 33.3524 7.76678 33.4366 7.7669C33.6585 7.76734 33.8803 7.76849 34.1022 7.76978C34.3285 7.77097 34.5548 7.77151 34.7811 7.77209C35.2253 7.77335 35.6695 7.77534 36.1137 7.77779C36.0431 7.93406 35.9418 8.04582 35.8266 8.16911C35.683 8.32528 35.5444 8.48257 35.4136 8.65036C35.2606 8.84565 35.0963 9.02713 34.9288 9.20923C34.8057 9.34388 34.6884 9.48085 34.5758 9.62501C34.4026 9.84654 34.2143 10.0517 34.025 10.2586C33.8588 10.4403 33.7004 10.6282 33.5429 10.8178C33.5043 10.8642 33.4657 10.9106 33.427 10.957C33.3977 10.9922 33.3977 10.9922 33.3678 11.0281C33.2394 11.1815 33.108 11.3315 32.9737 11.4795C32.8109 11.6595 32.6577 11.845 32.5088 12.0372C32.4302 12.1333 32.4302 12.1333 32.3231 12.2307C32.2958 12.2628 32.2685 12.2948 32.2403 12.3278C32.2519 12.4715 32.2943 12.5618 32.3783 12.6755C32.3992 12.7042 32.4201 12.7329 32.4417 12.7625C32.4645 12.7931 32.4874 12.8237 32.5109 12.8552C32.5346 12.8876 32.5583 12.9199 32.5828 12.9533C32.6329 13.0217 32.6833 13.09 32.7337 13.1581C32.831 13.2895 32.9275 13.4214 33.024 13.5533C33.0714 13.6182 33.1189 13.683 33.1665 13.7478C33.4611 14.1494 33.7514 14.5544 34.0413 14.9596C34.2765 15.288 34.5144 15.6139 34.7561 15.9372C34.9395 16.1824 35.1201 16.4288 35.2936 16.6814C35.4341 16.8856 35.5812 17.0846 35.7299 17.2826C35.748 17.307 35.7661 17.3313 35.7847 17.3565C35.8085 17.3882 35.8085 17.3882 35.8328 17.4206C35.9084 17.5337 35.9718 17.653 36.0378 17.7722C35.543 17.7822 35.0482 17.7898 34.5533 17.7944C34.3235 17.7966 34.0937 17.7997 33.8639 17.8045C33.6421 17.8092 33.4203 17.8117 33.1984 17.8128C33.1138 17.8136 33.0293 17.8152 32.9448 17.8175C32.285 17.8348 32.285 17.8348 32.0893 17.6867C32.0094 17.5763 31.954 17.4694 31.8985 17.3445C31.8603 17.284 31.8209 17.2243 31.7804 17.1654C31.7424 17.106 31.7045 17.0466 31.6667 16.9872C31.6232 16.9192 31.5797 16.8513 31.5362 16.7834C31.5137 16.7481 31.4911 16.7128 31.4679 16.6765C31.014 15.9661 30.5541 15.2602 30.0885 14.5578C29.7364 14.0256 29.3942 13.4884 29.0504 12.95C29.0379 14.5413 29.0254 16.1327 29.0125 17.7722C27.9974 17.7722 26.9823 17.7722 25.9365 17.7722C25.9365 12.9212 25.9365 8.07024 25.9365 3.07224Z"/>
<path d="M40.7411 7.46196C41.9808 7.43227 43.165 7.84065 44.0699 8.71796C44.3161 8.96315 44.5157 9.22765 44.6962 9.52778C44.7159 9.56044 44.7159 9.56044 44.7359 9.59376C45.4859 10.8648 45.4557 12.2804 45.4557 13.7278C42.0158 13.747 42.0158 13.747 38.5063 13.7667C38.7171 14.4683 38.9849 14.973 39.6257 15.3365C40.2358 15.6586 40.8947 15.6715 41.5411 15.467C42.0693 15.2794 42.5388 14.9159 42.8354 14.4278C42.9581 14.4516 43.0352 14.4938 43.1346 14.5704C43.163 14.5921 43.1914 14.6137 43.2206 14.636C43.2509 14.6595 43.2812 14.6831 43.3125 14.7073C43.3776 14.7571 43.4427 14.807 43.5079 14.8568C43.5412 14.8824 43.5745 14.908 43.6088 14.9344C43.7649 15.0541 43.922 15.1723 44.0791 15.2906C44.1385 15.3354 44.1979 15.3802 44.2573 15.4251C44.5046 15.6116 44.7522 15.7975 45 15.9833C44.6083 16.8524 43.48 17.4165 42.6517 17.7326C41.6777 18.0837 40.4978 18.1374 39.4937 17.8889C39.4462 17.8773 39.4462 17.8773 39.3978 17.8655C38.0456 17.5248 36.8541 16.7587 36.1223 15.5207C35.6397 14.6691 35.4142 13.7509 35.4185 12.7677C35.4187 12.7168 35.4189 12.6659 35.4191 12.6135C35.4354 11.2204 35.9388 10.0088 36.8782 9.00278C37.9216 7.96379 39.3136 7.52412 40.7411 7.46196ZM39.0294 10.3455C38.6902 10.7056 38.5549 11.1013 38.4684 11.5889C39.7717 11.5889 41.0749 11.5889 42.4177 11.5889C42.3655 11.0011 42.2238 10.5935 41.8054 10.1792C40.9759 9.47154 39.7928 9.63362 39.0294 10.3455Z"/>
<path d="M20.8197 7.52985C20.8917 7.5304 20.8917 7.5304 20.9651 7.53096C21.8662 7.54576 22.7523 7.75283 23.4305 8.39999C24.0806 9.09013 24.3112 9.99999 24.4178 10.9278C24.4212 10.9569 24.4245 10.9861 24.428 11.0161C24.4611 11.3416 24.4609 11.6663 24.4601 11.9931C24.4601 12.0564 24.4601 12.1197 24.4601 12.183C24.4601 12.3535 24.4599 12.5241 24.4597 12.6946C24.4594 12.8733 24.4594 13.052 24.4594 13.2307C24.4592 13.5686 24.4589 13.9064 24.4585 14.2442C24.458 14.7011 24.4578 15.158 24.4576 15.6149C24.4573 16.334 24.4565 17.0531 24.4558 17.7722C23.4533 17.7722 22.4507 17.7722 21.4178 17.7722C21.416 17.3812 21.4141 16.9903 21.4122 16.5875C21.4109 16.3388 21.4095 16.0902 21.408 15.8415C21.4058 15.4474 21.4035 15.0533 21.4018 14.6592C21.4006 14.3721 21.399 14.085 21.3972 13.7978C21.3963 13.6461 21.3954 13.4943 21.3949 13.3426C21.4382 11.9151 21.4382 11.9151 20.8665 10.6656C20.5623 10.3609 20.1555 10.3215 19.7502 10.3261C19.3441 10.3413 18.9832 10.4421 18.6837 10.7333C18.6631 10.7533 18.6425 10.7732 18.6214 10.7938C18.1376 11.3167 18.1092 12.1137 18.1062 12.7922C18.1059 12.8467 18.1055 12.9011 18.1051 12.9556C18.1041 13.1026 18.1033 13.2496 18.1025 13.3966C18.1017 13.5506 18.1006 13.7045 18.0996 13.8585C18.0977 14.1496 18.096 14.4407 18.0944 14.7319C18.0922 15.1256 18.0896 15.5193 18.0871 15.9129C18.0832 16.5327 18.0797 17.1525 18.0761 17.7722C17.0735 17.7722 16.071 17.7722 15.0381 17.7722C15.0381 14.474 15.0381 11.1759 15.0381 7.77776C16.003 7.77776 16.968 7.77776 17.9621 7.77776C17.9747 8.18843 17.9872 8.5991 18.0001 9.02221C18.1004 8.89388 18.2006 8.76554 18.3039 8.63332C18.9493 7.87336 19.8457 7.51821 20.8197 7.52985Z"/>
<path d="M0 3.07224C1.05266 3.07224 2.10532 3.07224 3.18987 3.07224C3.18987 6.93507 3.18987 10.7979 3.18987 14.7778C5.10722 14.7778 7.02456 14.7778 9 14.7778C9 15.766 9 16.7541 9 17.7722C6.03 17.7722 3.06 17.7722 0 17.7722C0 12.9212 0 8.07023 0 3.07224Z"/>
<path d="M10.3291 7.77777C11.3442 7.77777 12.3592 7.77777 13.4051 7.77777C13.4051 11.0759 13.4051 14.3741 13.4051 17.7722C12.39 17.7722 11.3749 17.7722 10.3291 17.7722C10.3291 14.474 10.3291 11.1759 10.3291 7.77777Z"/>
<path d="M13.0422 3.26408C13.3978 3.59991 13.6056 4.02889 13.6423 4.51916C13.662 5.07319 13.4995 5.54418 13.1395 5.95971C12.7299 6.36608 12.2545 6.47227 11.7053 6.4639C11.2589 6.44769 10.8823 6.22634 10.5599 5.92037C10.2036 5.5267 10.0815 5.04338 10.0908 4.52083C10.1078 4.13614 10.245 3.79658 10.4811 3.49999C10.5021 3.47327 10.523 3.44655 10.5446 3.41902C11.1927 2.67726 12.3033 2.66481 13.0422 3.26408Z"/>
</g>

</svg>
