<svg viewBox="0 0 81 22" fill="none" xmlns="http://www.w3.org/2000/svg">
<path d="M61.4001 0.99478C61.4458 0.994643 61.4458 0.994643 61.4923 0.994503C61.595 0.994243 61.6976 0.994261 61.8003 0.994277C61.8743 0.994148 61.9484 0.994004 62.0225 0.993843C62.2266 0.993453 62.4307 0.993309 62.6347 0.993206C62.8546 0.993054 63.0746 0.992682 63.2945 0.992342C63.8258 0.991573 64.3571 0.991182 64.8885 0.990836C65.1386 0.990666 65.3887 0.990457 65.6389 0.990253C66.4703 0.989592 67.3016 0.989027 68.133 0.988746C68.1868 0.988728 68.2405 0.988709 68.2943 0.988691C68.3343 0.988677 68.3343 0.988677 68.3751 0.988663C68.5102 0.988616 68.6453 0.988569 68.7804 0.988521C68.8072 0.988512 68.834 0.988503 68.8616 0.988493C69.7307 0.988186 70.5998 0.987275 71.4689 0.986011C72.3879 0.984677 73.3068 0.98391 74.2257 0.983782C74.7266 0.983698 75.2275 0.983357 75.7284 0.982365C76.155 0.981521 76.5815 0.981207 77.0081 0.981585C77.2257 0.981762 77.4433 0.981687 77.6609 0.980934C77.8603 0.980249 78.0596 0.980286 78.2589 0.980891C78.3309 0.980983 78.4029 0.980814 78.475 0.980353C79.0443 0.976934 79.475 1.03937 79.8989 1.46667C80.2927 1.92459 80.3009 2.49444 80.298 3.07056C80.2981 3.14571 80.2984 3.22085 80.2987 3.296C80.2993 3.50139 80.299 3.70678 80.2985 3.91217C80.2982 4.13411 80.2987 4.35605 80.2991 4.57798C80.2998 5.01232 80.2997 5.44666 80.2992 5.881C80.2989 6.23407 80.2988 6.58714 80.299 6.94021C80.299 6.99051 80.299 7.04081 80.2991 7.09263C80.2991 7.19482 80.2992 7.297 80.2992 7.39919C80.2996 8.32955 80.2992 9.25991 80.2984 10.1903C80.2977 11.0388 80.2977 11.8874 80.2985 12.736C80.2993 13.6903 80.2996 14.6445 80.2991 15.5988C80.2991 15.7006 80.299 15.8024 80.299 15.9042C80.299 15.9543 80.2989 16.0044 80.2989 16.056C80.2988 16.4086 80.299 16.7611 80.2994 17.1137C80.2998 17.5434 80.2997 17.9732 80.2989 18.403C80.2985 18.6222 80.2983 18.8413 80.2988 19.0605C80.2993 19.2614 80.299 19.4622 80.2982 19.663C80.298 19.7355 80.2981 19.8079 80.2985 19.8804C80.3013 20.4825 80.2453 20.9692 79.8216 21.4214C79.6267 21.6132 79.4354 21.7248 79.1774 21.8056C79.1567 21.8124 79.1359 21.8193 79.1146 21.8264C78.9865 21.8524 78.8595 21.8499 78.7295 21.8497C78.6993 21.8498 78.6691 21.8498 78.6381 21.8499C78.5364 21.8502 78.4347 21.8502 78.333 21.8502C78.2596 21.8503 78.1862 21.8504 78.1128 21.8506C77.9106 21.851 77.7084 21.8511 77.5062 21.8512C77.2883 21.8514 77.0704 21.8518 76.8525 21.8521C76.326 21.8529 75.7995 21.8533 75.273 21.8536C75.0251 21.8538 74.7772 21.854 74.5293 21.8542C73.7053 21.8549 72.8813 21.8554 72.0573 21.8557C72.004 21.8557 71.9507 21.8557 71.8974 21.8558C71.8578 21.8558 71.8578 21.8558 71.8173 21.8558C71.6834 21.8558 71.5495 21.8559 71.4156 21.8559C71.3758 21.8559 71.3758 21.8559 71.3351 21.856C70.4739 21.8563 69.6127 21.8572 68.7515 21.8584C67.8408 21.8598 66.9301 21.8605 66.0194 21.8607C65.5231 21.8607 65.0267 21.8611 64.5304 21.8621C64.1076 21.8629 63.6849 21.8632 63.2621 21.8629C63.0465 21.8627 62.8309 21.8628 62.6152 21.8635C62.4176 21.8642 62.22 21.8642 62.0224 21.8636C61.9511 21.8635 61.8798 21.8636 61.8085 21.8641C61.2534 21.8675 60.764 21.8287 60.342 21.4167C60.3206 21.3963 60.2992 21.376 60.2771 21.355C59.9418 20.9986 59.8801 20.523 59.8814 20.0496C59.8813 20.0191 59.8812 19.9886 59.8812 19.9572C59.881 19.8553 59.8811 19.7534 59.8812 19.6515C59.8811 19.5776 59.881 19.5037 59.8809 19.4298C59.8807 19.2269 59.8807 19.024 59.8807 18.8212C59.8808 18.6023 59.8805 18.3834 59.8804 18.1645C59.88 17.7357 59.8799 17.307 59.8799 16.8782C59.8799 16.5297 59.8798 16.1812 59.8797 15.8327C59.8794 15.0054 59.8792 14.1781 59.8792 13.3508C59.8792 13.3244 59.8792 13.2979 59.8792 13.2707C59.8792 13.1366 59.8792 13.0026 59.8792 12.8685C59.8792 12.8419 59.8792 12.8153 59.8792 12.7879C59.8792 12.734 59.8792 12.6802 59.8792 12.6263C59.8793 11.7888 59.879 10.9512 59.8784 10.1136C59.8779 9.17231 59.8775 8.23098 59.8776 7.28965C59.8776 6.79135 59.8775 6.29306 59.8771 5.79476C59.8767 5.37054 59.8766 4.94632 59.8769 4.52209C59.877 4.30568 59.877 4.08928 59.8767 3.87286C59.8764 3.67465 59.8765 3.47644 59.8768 3.27822C59.8768 3.20662 59.8768 3.13502 59.8766 3.06342C59.8748 2.43984 59.8904 1.89615 60.3277 1.41563C60.6388 1.11233 60.9787 0.993923 61.4001 0.99478ZM63.3799 4.26667C63.3423 4.29474 63.3047 4.32281 63.266 4.35174C62.9962 4.58822 62.8102 4.96441 62.7344 5.31667C62.6975 5.94139 62.7896 6.37904 63.1776 6.87572C63.4447 7.1802 63.8506 7.40113 64.2511 7.42593C64.8115 7.43974 65.2186 7.32273 65.6465 6.93542C66.0069 6.51652 66.2127 6.08665 66.1877 5.51597C66.1329 5.0235 65.9232 4.62078 65.5607 4.29568C64.8888 3.76274 64.0635 3.75334 63.3799 4.26667ZM71.1268 9.67222C70.9198 9.90038 70.9198 9.90038 70.823 10.1778C70.7854 10.1778 70.7478 10.1778 70.709 10.1778C70.709 9.72861 70.709 9.27944 70.709 8.81667C69.7692 8.81667 68.8293 8.81667 67.8609 8.81667C67.8609 12.0892 67.8609 15.3617 67.8609 18.7333C68.8384 18.7333 69.8159 18.7333 70.823 18.7333C70.8248 18.3662 70.8267 17.999 70.8286 17.6207C70.83 17.3868 70.8313 17.1529 70.8328 16.9189C70.835 16.5484 70.8373 16.1779 70.839 15.8073C70.8403 15.5373 70.8418 15.2673 70.8436 14.9974C70.8445 14.8548 70.8454 14.7121 70.8459 14.5695C70.8544 12.335 70.8544 12.335 71.3926 11.7333C71.8026 11.331 72.3005 11.29 72.8392 11.2974C73.1913 11.3084 73.4798 11.416 73.747 11.6556C74.1921 12.1671 74.2139 12.915 74.2148 13.5635C74.2152 13.6203 74.2156 13.6771 74.216 13.7339C74.217 13.8863 74.2176 14.0388 74.2181 14.1913C74.2187 14.3512 74.2197 14.5112 74.2207 14.6711C74.2224 14.9733 74.2238 15.2755 74.2251 15.5776C74.2268 15.9865 74.2291 16.3953 74.2314 16.8041C74.235 17.4472 74.2378 18.0903 74.2407 18.7333C75.2307 18.7333 76.2207 18.7333 77.2407 18.7333C77.2429 17.7231 77.2429 17.7231 77.2444 16.7129C77.2449 16.3001 77.2454 15.8873 77.2464 15.4744C77.2472 15.1735 77.2477 14.8727 77.2478 14.5718C77.2479 14.413 77.2482 14.2542 77.2487 14.0954C77.2508 13.4963 77.2483 12.8995 77.2076 12.3015C77.2033 12.2381 77.2033 12.2381 77.1989 12.1734C77.1136 11.0718 76.8303 10.0376 76.0089 9.27361C74.6186 8.11962 72.3163 8.36504 71.1268 9.67222ZM62.9622 8.81667C62.9622 12.0892 62.9622 15.3617 62.9622 18.7333C63.9397 18.7333 64.9172 18.7333 65.9242 18.7333C65.9242 15.4608 65.9242 12.1883 65.9242 8.81667C64.9468 8.81667 63.9693 8.81667 62.9622 8.81667Z" />
<path d="M53.886 4.07227C54.8885 4.07227 55.891 4.07227 56.9239 4.07227C56.9239 8.92327 56.9239 13.7743 56.9239 18.7723C55.9966 18.7723 55.0693 18.7723 54.1138 18.7723C54.1013 18.3616 54.0888 17.9509 54.0758 17.5278C54.01 17.604 53.9443 17.6802 53.8765 17.7587C53.3451 18.3541 52.6701 18.7313 51.9113 18.9278C51.8569 18.9421 51.8569 18.9421 51.8014 18.9567C50.6875 19.1949 49.3565 18.9035 48.4057 18.2716C47.2698 17.4539 46.601 16.3344 46.3483 14.9387C46.117 13.343 46.362 11.5963 47.3116 10.2725C47.3862 10.1735 47.4647 10.0783 47.5442 9.98338C47.5709 9.94974 47.5976 9.9161 47.6252 9.88145C48.2882 9.0784 49.2876 8.57528 50.3053 8.47332C51.3002 8.39775 52.535 8.51289 53.3352 9.19724C53.4474 9.29919 53.5533 9.40678 53.6581 9.51671C53.7208 9.58088 53.7834 9.64504 53.848 9.71115C53.8668 6.9199 53.8668 6.9199 53.886 4.07227ZM49.8354 12.0533C49.3918 12.6575 49.2512 13.4508 49.3478 14.189C49.4201 14.659 49.587 15.0443 49.8606 15.4278C49.8888 15.4679 49.917 15.508 49.9461 15.5493C50.3843 16.0185 50.9928 16.2389 51.6163 16.2602C52.3219 16.2695 52.9433 16.0849 53.4682 15.5834C53.9933 15.0165 54.1318 14.3129 54.122 13.556C54.1014 12.8839 53.8447 12.2554 53.3733 11.7844C52.3576 10.938 50.69 11.009 49.8354 12.0533Z" />
<path d="M25.9365 4.07227C26.9516 4.07227 27.9667 4.07227 29.0125 4.07227C29.025 6.92127 29.0375 9.77027 29.0504 12.7056C29.2134 12.5131 29.3763 12.3206 29.5441 12.1223C29.6843 11.9568 29.6843 11.9568 29.7399 11.8912C29.9383 11.657 30.1357 11.4218 30.3323 11.186C30.4435 11.0531 30.5565 10.9222 30.6715 10.7928C30.7865 10.6631 30.8962 10.5304 31.0038 10.3941C31.1504 10.2085 31.3052 10.0326 31.463 9.85699C31.5841 9.71887 31.6972 9.5749 31.8109 9.43043C31.9354 9.27678 32.0672 9.1307 32.1998 8.98442C32.2826 8.89379 32.2826 8.89379 32.3542 8.77782C32.4223 8.76347 32.4223 8.76347 32.5061 8.76379C32.5378 8.76363 32.5696 8.76347 32.6023 8.76331C32.6372 8.76373 32.672 8.76414 32.708 8.76458C32.7447 8.76456 32.7813 8.76454 32.8191 8.76453C32.9408 8.76461 33.0624 8.76552 33.1841 8.76643C33.2682 8.76665 33.3524 8.76681 33.4366 8.76693C33.6585 8.76737 33.8803 8.76852 34.1022 8.76981C34.3285 8.771 34.5548 8.77154 34.7811 8.77212C35.2253 8.77338 35.6695 8.77537 36.1137 8.77782C36.0431 8.93409 35.9418 9.04585 35.8266 9.16914C35.683 9.32531 35.5444 9.4826 35.4136 9.65039C35.2606 9.84568 35.0963 10.0272 34.9288 10.2093C34.8057 10.3439 34.6884 10.4809 34.5758 10.625C34.4026 10.8466 34.2143 11.0518 34.025 11.2587C33.8588 11.4403 33.7004 11.6283 33.5429 11.8178C33.5043 11.8642 33.4657 11.9106 33.427 11.957C33.3977 11.9922 33.3977 11.9922 33.3678 12.0281C33.2394 12.1816 33.108 12.3315 32.9737 12.4796C32.8109 12.6596 32.6577 12.845 32.5088 13.0372C32.4302 13.1334 32.4302 13.1334 32.3231 13.2308C32.2958 13.2628 32.2685 13.2948 32.2403 13.3278C32.2519 13.4715 32.2943 13.5618 32.3783 13.6755C32.3992 13.7042 32.4201 13.7329 32.4417 13.7625C32.4645 13.7931 32.4874 13.8237 32.5109 13.8553C32.5346 13.8876 32.5583 13.92 32.5828 13.9533C32.6329 14.0217 32.6833 14.09 32.7337 14.1582C32.831 14.2895 32.9275 14.4214 33.024 14.5534C33.0714 14.6182 33.1189 14.683 33.1665 14.7478C33.4611 15.1494 33.7514 15.5544 34.0413 15.9597C34.2765 16.288 34.5144 16.6139 34.7561 16.9372C34.9395 17.1824 35.1201 17.4288 35.2936 17.6815C35.4341 17.8856 35.5812 18.0846 35.7299 18.2826C35.748 18.307 35.7661 18.3314 35.7847 18.3565C35.8085 18.3883 35.8085 18.3883 35.8328 18.4207C35.9084 18.5338 35.9718 18.653 36.0378 18.7723C35.543 18.7822 35.0482 18.7898 34.5533 18.7944C34.3235 18.7967 34.0937 18.7997 33.8639 18.8045C33.6421 18.8092 33.4203 18.8117 33.1984 18.8129C33.1138 18.8136 33.0293 18.8152 32.9448 18.8175C32.285 18.8348 32.285 18.8348 32.0893 18.6867C32.0094 18.5763 31.954 18.4694 31.8985 18.3445C31.8603 18.2841 31.8209 18.2243 31.7804 18.1654C31.7424 18.1061 31.7045 18.0467 31.6667 17.9872C31.6232 17.9193 31.5797 17.8513 31.5362 17.7834C31.5137 17.7481 31.4911 17.7128 31.4679 17.6765C31.014 16.9662 30.5541 16.2602 30.0885 15.5579C29.7364 15.0257 29.3942 14.4884 29.0504 13.95C29.0379 15.5414 29.0254 17.1327 29.0125 18.7723C27.9974 18.7723 26.9823 18.7723 25.9365 18.7723C25.9365 13.9213 25.9365 9.07027 25.9365 4.07227Z" />
<path d="M40.7411 8.46196C41.9808 8.43227 43.165 8.84065 44.0699 9.71796C44.3161 9.96315 44.5157 10.2277 44.6962 10.5278C44.7159 10.5604 44.7159 10.5604 44.7359 10.5938C45.4859 11.8648 45.4557 13.2804 45.4557 14.7278C42.0158 14.747 42.0158 14.747 38.5063 14.7667C38.7171 15.4683 38.9849 15.973 39.6257 16.3365C40.2358 16.6586 40.8947 16.6715 41.5411 16.467C42.0693 16.2794 42.5388 15.9159 42.8354 15.4278C42.9581 15.4516 43.0352 15.4938 43.1346 15.5704C43.163 15.5921 43.1914 15.6137 43.2206 15.636C43.2509 15.6595 43.2812 15.6831 43.3125 15.7073C43.3776 15.7571 43.4427 15.807 43.5079 15.8568C43.5412 15.8824 43.5745 15.908 43.6088 15.9344C43.7649 16.0541 43.922 16.1723 44.0791 16.2906C44.1385 16.3354 44.1979 16.3802 44.2573 16.4251C44.5046 16.6116 44.7522 16.7975 45 16.9833C44.6083 17.8524 43.48 18.4165 42.6517 18.7326C41.6777 19.0837 40.4978 19.1374 39.4937 18.8889C39.4462 18.8773 39.4462 18.8773 39.3978 18.8655C38.0456 18.5248 36.8541 17.7587 36.1223 16.5207C35.6397 15.6691 35.4142 14.7509 35.4185 13.7677C35.4187 13.7168 35.4189 13.6659 35.4191 13.6135C35.4354 12.2204 35.9388 11.0088 36.8782 10.0028C37.9216 8.96379 39.3136 8.52412 40.7411 8.46196ZM39.0294 11.3455C38.6902 11.7056 38.5549 12.1013 38.4684 12.5889C39.7717 12.5889 41.0749 12.5889 42.4177 12.5889C42.3655 12.0011 42.2238 11.5935 41.8054 11.1792C40.9759 10.4715 39.7928 10.6336 39.0294 11.3455Z" />
<path d="M20.8197 8.52982C20.8917 8.53037 20.8917 8.53037 20.9651 8.53093C21.8662 8.54573 22.7523 8.7528 23.4305 9.39996C24.0806 10.0901 24.3112 11 24.4178 11.9277C24.4212 11.9569 24.4245 11.986 24.428 12.0161C24.4611 12.3416 24.4609 12.6663 24.4601 12.9931C24.4601 13.0564 24.4601 13.1197 24.4601 13.1829C24.4601 13.3535 24.4599 13.524 24.4597 13.6946C24.4594 13.8733 24.4594 14.052 24.4594 14.2307C24.4592 14.5685 24.4589 14.9064 24.4585 15.2442C24.458 15.7011 24.4578 16.158 24.4576 16.6149C24.4573 17.334 24.4565 18.0531 24.4558 18.7722C23.4533 18.7722 22.4507 18.7722 21.4178 18.7722C21.416 18.3812 21.4141 17.9902 21.4122 17.5874C21.4109 17.3388 21.4095 17.0901 21.408 16.8415C21.4058 16.4474 21.4035 16.0533 21.4018 15.6592C21.4006 15.3721 21.399 15.0849 21.3972 14.7978C21.3963 14.6461 21.3954 14.4943 21.3949 14.3425C21.4382 12.9151 21.4382 12.9151 20.8665 11.6655C20.5623 11.3609 20.1555 11.3214 19.7502 11.326C19.3441 11.3413 18.9832 11.442 18.6837 11.7333C18.6631 11.7532 18.6425 11.7732 18.6214 11.7937C18.1376 12.3167 18.1092 13.1137 18.1062 13.7922C18.1059 13.8466 18.1055 13.9011 18.1051 13.9556C18.1041 14.1026 18.1033 14.2496 18.1025 14.3966C18.1017 14.5505 18.1006 14.7045 18.0996 14.8584C18.0977 15.1496 18.096 15.4407 18.0944 15.7319C18.0922 16.1255 18.0896 16.5192 18.0871 16.9129C18.0832 17.5327 18.0797 18.1524 18.0761 18.7722C17.0735 18.7722 16.071 18.7722 15.0381 18.7722C15.0381 15.474 15.0381 12.1758 15.0381 8.77773C16.003 8.77773 16.968 8.77773 17.9621 8.77773C17.9747 9.1884 17.9872 9.59907 18.0001 10.0222C18.1004 9.89385 18.2006 9.76551 18.3039 9.63329C18.9493 8.87333 19.8457 8.51818 20.8197 8.52982Z" />
<path d="M0 4.07227C1.05266 4.07227 2.10532 4.07227 3.18987 4.07227C3.18987 7.9351 3.18987 11.7979 3.18987 15.7778C5.10722 15.7778 7.02456 15.7778 9 15.7778C9 16.766 9 17.7542 9 18.7723C6.03 18.7723 3.06 18.7723 0 18.7723C0 13.9213 0 9.07027 0 4.07227Z" />
<path d="M10.3291 8.77783C11.3442 8.77783 12.3592 8.77783 13.4051 8.77783C13.4051 12.076 13.4051 15.3742 13.4051 18.7723C12.39 18.7723 11.3749 18.7723 10.3291 18.7723C10.3291 15.4741 10.3291 12.1759 10.3291 8.77783Z" />
<path d="M13.0422 4.26405C13.3978 4.59988 13.6056 5.02886 13.6423 5.51912C13.662 6.07315 13.4995 6.54415 13.1395 6.95968C12.7299 7.36605 12.2545 7.47224 11.7053 7.46387C11.2589 7.44765 10.8823 7.2263 10.5599 6.92034C10.2036 6.52667 10.0815 6.04335 10.0908 5.5208C10.1078 5.13611 10.245 4.79655 10.4811 4.49996C10.5021 4.47324 10.523 4.44652 10.5446 4.41899C11.1927 3.67723 12.3033 3.66478 13.0422 4.26405Z" />
</svg>
