<svg width="66" height="27" viewBox="0 0 66 27" fill="none" xmlns="http://www.w3.org/2000/svg">
<path d="M11.212 5.61404C11.3684 5.61251 11.5249 5.61098 11.6861 5.60941C12.9006 5.61339 14.0958 5.73693 15.1802 6.32196C15.1049 7.2382 14.9145 8.07555 14.6522 8.95611C14.184 9.07129 13.9821 9.0853 13.4972 8.96434C12.1893 8.64465 10.5985 8.62807 9.3722 9.21952C9.28049 9.25654 9.18877 9.29355 9.09428 9.33168C8.7804 9.52153 8.71613 9.6728 8.5802 10.0098C8.53511 10.1142 8.49002 10.2186 8.44356 10.3262C8.39881 10.4364 8.35406 10.5465 8.30795 10.6601C8.26286 10.7699 8.21777 10.8798 8.17131 10.9929C7.63423 12.4985 7.67702 14.7391 8.3162 16.2C8.7476 16.9892 9.29701 17.5144 10.1642 17.7805C10.5748 17.8115 10.982 17.8053 11.3935 17.797C11.7719 17.7915 12.1503 17.7861 12.5402 17.7805C12.5402 16.8678 12.5402 15.955 12.5402 15.0146C11.8432 15.0146 11.1463 15.0146 10.4282 15.0146C10.4282 14.0585 10.4282 13.1023 10.4282 12.1171C12.1706 12.1171 13.913 12.1171 15.7082 12.1171C15.7082 14.6814 15.7082 17.2458 15.7082 19.8878C13.4719 21.0035 10.9832 21.4387 8.50595 20.7274C8.12903 20.5803 8.12903 20.5803 7.7882 20.4146C7.60928 20.3286 7.60928 20.3286 7.42675 20.2408C5.98346 19.4599 5.27144 18.304 4.7706 16.7752C4.4673 15.6726 4.42022 14.6024 4.43045 13.4671C4.43099 13.3278 4.43099 13.3278 4.43154 13.1856C4.44457 10.9565 4.74302 8.78699 6.33569 7.08803C7.74129 5.81676 9.37845 5.59619 11.212 5.61404Z" />
<path d="M30.0057 6.17529C30.1377 6.17598 30.2698 6.17667 30.4058 6.17738C30.5341 6.17771 30.6624 6.17804 30.7946 6.17838C31.0409 6.18018 31.0409 6.18018 31.2922 6.18201C31.8121 6.18473 32.3321 6.18745 32.8679 6.19025C32.8679 7.97224 32.8679 9.75424 32.8679 11.5902C34.2183 11.5902 35.5686 11.5902 36.9599 11.5902C36.9599 9.80824 36.9599 8.02624 36.9599 6.19025C38.0489 6.19025 39.1379 6.19025 40.2599 6.19025C40.2629 8.05977 40.2653 9.9293 40.2667 11.7988C40.2674 12.6668 40.2684 13.5348 40.2699 14.4028C40.2713 15.2397 40.2721 16.0766 40.2724 16.9135C40.2727 17.2336 40.2731 17.5537 40.2739 17.8737C40.2748 18.3203 40.2749 18.7669 40.2749 19.2135C40.2754 19.3473 40.2758 19.4811 40.2763 19.6189C40.2761 19.7399 40.276 19.8608 40.2758 19.9855C40.2759 20.0912 40.276 20.197 40.2761 20.3059C40.2599 20.5463 40.2599 20.5463 40.1279 20.678C39.8928 20.6895 39.6573 20.6921 39.422 20.6909C39.2937 20.6906 39.1654 20.6903 39.0332 20.6899C38.869 20.6887 38.7048 20.6875 38.5356 20.6863C38.0157 20.6836 37.4957 20.6808 36.9599 20.678C36.9599 18.6353 36.9599 16.5925 36.9599 14.4878C35.6095 14.4878 34.2592 14.4878 32.8679 14.4878C32.8679 16.5306 32.8679 18.5734 32.8679 20.678C32.3479 20.6808 31.8279 20.6835 31.2922 20.6863C31.0459 20.6881 31.0459 20.6881 30.7946 20.6899C30.6663 20.6902 30.538 20.6906 30.4058 20.6909C30.2077 20.6919 30.2077 20.6919 30.0057 20.693C29.6999 20.678 29.6999 20.678 29.5679 20.5463C29.555 20.3617 29.5512 20.1764 29.5511 19.9914C29.5508 19.8717 29.5504 19.752 29.55 19.6287C29.5503 19.4964 29.5505 19.3641 29.5508 19.2277C29.5506 19.0892 29.5504 18.9506 29.5501 18.8079C29.5495 18.3474 29.5499 17.887 29.5504 17.4265C29.5503 17.1081 29.5502 16.7897 29.55 16.4713C29.5498 15.803 29.5501 15.1346 29.5507 14.4663C29.5514 13.6075 29.551 12.7487 29.5502 11.8898C29.5497 11.232 29.5499 10.5742 29.5502 9.91646C29.5503 9.59969 29.5502 9.28292 29.5499 8.96615C29.5496 8.52429 29.5501 8.08243 29.5508 7.64057C29.5506 7.50824 29.5503 7.37591 29.55 7.23957C29.5506 7.06006 29.5506 7.06006 29.5511 6.87692C29.5512 6.77231 29.5512 6.66771 29.5513 6.55994C29.5768 6.19432 29.6391 6.19322 30.0057 6.17529Z" />
<path d="M52.0078 6.19025C53.0533 6.19025 54.0987 6.19025 55.1758 6.19025C55.3078 6.32195 55.3078 6.32195 55.3228 6.76007C55.3228 6.95445 55.322 7.14883 55.3207 7.3432C55.3205 7.44533 55.3203 7.54746 55.3201 7.65269C55.3194 7.98015 55.3177 8.3076 55.3161 8.63506C55.3154 8.85655 55.3148 9.07803 55.3143 9.29952C55.3128 9.84359 55.3105 10.3876 55.3078 10.9317C55.3795 10.9042 55.4513 10.8768 55.5252 10.8485C55.6669 10.7947 55.6669 10.7947 55.8116 10.7398C55.9518 10.6864 55.9518 10.6864 56.0949 10.6319C57.2925 10.2075 58.5023 10.3463 59.6638 10.8C60.4752 11.1892 60.8812 11.8461 61.2478 12.6439C61.5636 13.5923 61.5557 14.5154 61.5531 15.5085C61.5552 15.6664 61.5573 15.8243 61.5595 15.987C61.5603 17.5334 61.369 19.0566 60.265 20.2207C59.4863 20.9224 58.6587 20.9926 57.6591 20.9909C57.5483 20.9908 57.4375 20.9908 57.3234 20.9908C56.266 20.9715 55.4005 20.7397 54.5158 20.1512C54.4723 20.3251 54.4287 20.4989 54.3838 20.6781C53.5997 20.6781 52.8157 20.6781 52.0078 20.6781C52.0078 15.8971 52.0078 11.1161 52.0078 6.19025ZM55.1758 13.5659C55.1758 15.0001 55.1758 16.4344 55.1758 17.9122C56.0391 18.2814 56.5198 18.4397 57.4198 18.3073C57.9271 18.0543 58.0449 17.8684 58.2531 17.3442C58.5256 15.9506 58.4863 14.593 57.7498 13.3683C56.8912 12.8543 56.0069 13.1512 55.1758 13.5659Z" />
<path d="M41.4479 10.8C42.5369 10.8 43.6259 10.8 44.7479 10.8C44.7528 11.2883 44.7577 11.7766 44.7628 12.2796C44.7689 12.7522 44.7757 13.2247 44.7825 13.6972C44.7869 14.0257 44.7906 14.3543 44.7936 14.6829C44.798 15.155 44.8049 15.6271 44.8123 16.0991C44.8132 16.2462 44.814 16.3933 44.8149 16.5449C44.8188 16.7505 44.8188 16.7505 44.8228 16.9603C44.8243 17.0808 44.8257 17.2013 44.8272 17.3254C44.8898 17.7097 45.0107 17.8936 45.2759 18.1756C45.544 18.2539 45.544 18.2539 45.8369 18.2332C45.9328 18.233 46.0288 18.2329 46.1277 18.2327C46.5768 18.1699 46.5768 18.1699 47.3879 17.7805C47.4314 15.4769 47.475 13.1734 47.5199 10.8C48.5653 10.8 49.6107 10.8 50.6879 10.8C50.6879 14.0597 50.6879 17.3195 50.6879 20.678C49.9473 20.678 49.2068 20.678 48.4439 20.678C48.3567 20.5476 48.2696 20.4173 48.1799 20.2829C48.0866 20.3305 47.9934 20.378 47.8973 20.427C46.9428 20.8577 46.1439 21.0065 45.1026 21.0073C44.9924 21.0081 44.8822 21.0088 44.7686 21.0096C43.8014 20.9904 42.8843 20.7752 42.1483 20.0998C41.3574 19.1273 41.3764 17.9318 41.3963 16.7423C41.397 16.5716 41.3978 16.401 41.3986 16.2252C41.4006 15.7761 41.4057 15.3271 41.4116 14.8781C41.4171 14.418 41.4194 13.958 41.4221 13.4979C41.4277 12.5986 41.437 11.6993 41.4479 10.8Z" />
<path d="M22.9682 7.90244C24.0137 7.90244 25.0591 7.90244 26.1362 7.90244C26.1362 8.81517 26.1362 9.7279 26.1362 10.6683C26.8253 10.6631 26.8253 10.6631 27.5145 10.6564C27.7591 10.6555 28.0037 10.6617 28.2482 10.6683C28.3802 10.8 28.3802 10.8 28.3952 11.0568C28.3945 11.1664 28.3938 11.2761 28.3931 11.3891C28.3927 11.5075 28.3923 11.6259 28.3918 11.7479C28.3902 11.9347 28.3902 11.9347 28.3885 12.1253C28.3879 12.2503 28.3873 12.3754 28.3867 12.5042C28.3851 12.8142 28.3827 13.1242 28.3802 13.4341C27.6397 13.4341 26.8992 13.4341 26.1362 13.4341C26.149 14.006 26.1626 14.5778 26.1781 15.1496C26.1832 15.344 26.1878 15.5385 26.1919 15.7329C26.198 16.0128 26.2056 16.2926 26.2136 16.5725C26.2177 16.7408 26.2219 16.9091 26.2261 17.0825C26.265 17.4838 26.298 17.7191 26.5322 18.0439C27.041 18.2131 27.5308 18.2312 28.0636 18.2703C28.3802 18.3073 28.3802 18.3073 28.5122 18.439C28.5289 18.7891 28.5367 19.1343 28.537 19.4844C28.5386 19.5822 28.5402 19.6799 28.5419 19.7805C28.5426 20.036 28.5283 20.2914 28.5122 20.5463C27.935 21.1223 26.9783 20.9817 26.206 20.9832C25.3043 20.9676 24.5267 20.8269 23.8123 20.2407C23.0383 19.4118 22.909 18.4187 22.9296 17.3442C22.9301 17.2317 22.9307 17.1192 22.9313 17.0032C22.9334 16.6476 22.9384 16.2921 22.9435 15.9366C22.9455 15.6939 22.9473 15.4513 22.9489 15.2086C22.9532 14.6171 22.9601 14.0256 22.9682 13.4341C22.799 13.4364 22.799 13.4364 22.6264 13.4388C22.4805 13.44 22.3347 13.4411 22.1845 13.4424C22.039 13.4439 21.8935 13.4454 21.7436 13.447C21.3842 13.4341 21.3842 13.4341 21.2522 13.3024C21.2426 12.9692 21.24 12.6395 21.244 12.3064C21.2446 12.2128 21.2452 12.1191 21.2458 12.0227C21.2473 11.7907 21.2497 11.5588 21.2522 11.3268C21.8685 11.044 22.2735 10.9155 22.9682 10.8C22.9682 9.8438 22.9682 8.88761 22.9682 7.90244Z" />
<path d="M18.0469 10.6508C18.17 10.6506 18.293 10.6505 18.4197 10.6503C18.6129 10.6511 18.6129 10.6511 18.8101 10.6518C18.9389 10.6513 19.0677 10.6508 19.2004 10.6503C19.3849 10.6506 19.3849 10.6506 19.5732 10.6508C19.6863 10.651 19.7993 10.6511 19.9158 10.6513C20.1961 10.6683 20.1961 10.6683 20.4601 10.8C20.4631 12.0685 20.4655 13.337 20.4669 14.6055C20.4676 15.1944 20.4685 15.7834 20.47 16.3723C20.4715 16.9402 20.4722 17.5081 20.4726 18.076C20.4728 18.2932 20.4733 18.5103 20.474 18.7274C20.475 19.0305 20.4751 19.3336 20.475 19.6367C20.4753 19.8096 20.4756 19.9824 20.4759 20.1605C20.4601 20.5464 20.4601 20.5464 20.3281 20.6781C20.1042 20.6911 19.8799 20.6953 19.6557 20.6956C19.5197 20.6957 19.3838 20.6959 19.2437 20.6961C19.0291 20.6953 19.0291 20.6953 18.8101 20.6945C18.667 20.695 18.5239 20.6955 18.3764 20.6961C18.2405 20.6959 18.1045 20.6957 17.9644 20.6956C17.8388 20.6954 17.7131 20.6953 17.5836 20.6951C17.2921 20.6781 17.2921 20.6781 17.1601 20.5464C17.1476 20.2434 17.1446 19.94 17.1451 19.6367C17.1451 19.5416 17.145 19.4466 17.145 19.3486C17.1451 19.0329 17.1461 18.7172 17.1472 18.4015C17.1474 18.1832 17.1476 17.9648 17.1477 17.7465C17.1482 17.1708 17.1495 16.595 17.151 16.0193C17.1523 15.4322 17.153 14.8452 17.1536 14.2581C17.155 13.1054 17.1573 11.9527 17.1601 10.8C17.4807 10.6401 17.689 10.6513 18.0469 10.6508Z" />
<path d="M19.6927 6.60183C20.1563 6.91022 20.3527 7.13409 20.5919 7.63903C20.6964 8.29303 20.66 8.80032 20.3939 9.40885C19.9697 9.84274 19.6097 10.0484 19.0079 10.1415C18.3553 10.1154 17.9321 9.96898 17.4239 9.55702C16.9607 8.9648 16.9397 8.36404 17.0279 7.63903C17.5662 6.52356 18.5371 6.19487 19.6927 6.60183Z" />
</svg>
