<svg viewBox="0 0 497 1220" fill="none" xmlns="http://www.w3.org/2000/svg">
<path d="M677.071 1184.49C609.562 1092.97 577.248 980.285 563.404 868.667C555.328 803.554 553.251 737.868 552.933 672.311C552.774 639.64 553.05 606.972 553.241 574.301C553.335 557.975 553.413 541.644 553.395 525.316C553.378 510.521 553.677 494.138 542.225 483.051C519.542 461.087 486.032 474.442 464.903 491.017C443.508 507.801 424.889 528.539 408.492 550.144C376.356 592.492 352.791 640.663 331.846 689.304C285.847 796.126 246.405 906.975 182.542 1005.03C154.028 1048.81 117.962 1090.47 70.5499 1114.23C28.2253 1135.45 -23.7753 1143.59 -69.0104 1126.78C-79.985 1122.7 -90.2307 1117.13 -99.7508 1110.33C-101.429 1109.13 -99.8519 1106.34 -98.1125 1107.53C-53.636 1138 4.0331 1137.34 52.8315 1117.91C105.456 1096.96 145.324 1053.91 176.149 1007.66C241.52 909.569 281.312 797.429 327.423 689.784C348.294 641.057 371.719 592.87 403.574 550.26C419.05 529.565 436.435 510.086 456.091 493.262C473.212 478.61 494.47 465.218 517.988 468.167C540.989 471.049 555.199 487.061 556.895 509.859C559.281 541.919 557.056 574.833 556.865 606.973C556.473 672.778 556.423 738.667 561.002 804.349C569.286 923.199 593.808 1044.25 655.783 1147.53C663.111 1159.74 670.837 1171.7 679.055 1183.33C679.917 1184.55 677.935 1185.66 677.071 1184.49Z" fill-opacity="0.45" stroke-width="1.79684"/>
<path d="M645.936 1195.49C612.256 1154.82 591.305 1105.37 576.184 1055.19C559.68 1000.43 548.801 943.828 537.732 887.769C525.517 825.906 517.14 763.872 515.988 700.751C515.398 668.493 516.227 636.222 517.787 604.001C518.581 587.604 519.566 571.218 520.655 554.838C521.493 542.223 523.469 528.888 520.574 516.391C516.368 498.234 499.759 493.783 484.027 501.973C470.929 508.788 460.554 520.794 451.802 532.405C434.198 555.761 418.994 581.303 403.976 606.363C373.196 657.726 345.621 711.008 321.472 765.8C275.569 869.948 248.656 986.491 177.34 1077.51C146.866 1116.41 108.419 1150.31 62.636 1169.85C10.508 1192.11 -46.4257 1190.87 -101.322 1181.12C-116.196 1178.48 -130.929 1175.22 -145.609 1171.67C-147.453 1171.23 -146.668 1168.45 -144.829 1168.84C-84.2992 1181.8 -20.6847 1192.86 39.9032 1174.06C89.4123 1158.7 131.57 1125.76 164.823 1086.66C241.1 996.98 268.551 878.042 314.405 772.178C338.407 716.766 365.902 662.869 396.666 610.907C411.926 585.134 427.635 559.337 445.06 534.958C457.431 517.649 476.576 493.125 500.372 493.65C522.485 494.139 526.428 518.362 525.735 535.764C524.483 567.275 521.606 598.708 520.516 630.242C518.244 695.969 520.449 761.533 530.61 826.578C539.992 886.626 552.618 946.583 566.809 1005.68C579.646 1059.13 596.173 1112.61 624.672 1159.99C631.747 1171.75 639.483 1183.14 647.778 1194.07C648.574 1195.13 646.784 1196.52 645.936 1195.49Z" fill-opacity="0.45" stroke-width="1.79684"/>
<path d="M82.3871 1176.78C178.899 1131.15 235.46 1035.16 273.126 939.473C294.525 885.105 311.54 829.142 332.531 774.622C353.073 721.27 377.936 669.632 407.026 620.41C421.358 596.158 436.243 571.698 453.53 549.414C461.652 538.945 485.402 506.907 501.989 519.507C511.961 527.084 508.209 546.745 507.911 557.707C507.527 571.906 506.965 586.101 506.467 600.3C503.609 681.697 503.747 763.205 513.447 844.194C526.375 952.139 555.477 1058.39 604.791 1155.53C611.351 1168.45 618.272 1181.19 625.464 1193.76C626.609 1195.76 623.528 1197.56 622.381 1195.57C568.933 1102.56 534.643 999.817 517.087 894.175C503.167 810.409 499.676 725.464 501.636 640.681C502.32 611.044 503.773 581.432 504.436 551.798C504.568 545.897 505.02 539.818 504.585 533.927C503.677 521.675 493.796 518.147 483.852 524.137C477.747 527.813 472.446 533.324 467.573 538.474C448.246 558.901 433.373 584.132 418.738 608.006C388.549 657.255 362.512 709.071 341.059 762.707C319.738 816.016 302.879 870.96 282.575 924.647C248.24 1015.43 200.088 1108.89 114.973 1161.74C104.823 1168.04 94.2198 1173.51 83.2899 1178.32C82.2546 1178.78 81.3385 1177.28 82.3871 1176.78Z" fill-opacity="0.45" stroke-width="1.79684"/>
<path d="M127.955 1177.99C165.153 1142.44 201.873 1105.88 232.18 1064.12C263.685 1020.71 284.069 972.578 301.42 922.102C334.014 827.273 366.127 732.522 414.856 644.482C425.796 624.718 437.309 605.28 450.669 587.036C457.673 577.475 464.97 566.573 473.93 558.758C478.885 554.434 486.222 551.835 491.991 556.274C502.35 564.244 497.977 581.452 496.146 592.208C493.921 605.278 492.177 618.426 490.766 631.607C482.667 707.218 484.545 784.037 493.434 859.483C505.658 963.24 532.235 1065.48 573.106 1161.66C578.64 1174.69 584.458 1187.59 590.433 1200.42C591.369 1202.43 588.396 1204.2 587.428 1202.17C543.228 1109.43 513.142 1009.95 496.733 908.591C484.106 830.603 479.225 751.06 483.878 672.153C485.488 644.858 488.218 617.57 492.84 590.611C494.186 582.758 496.048 574.79 494.113 566.85C492.316 559.48 486.657 555.17 479.095 559.258C472.901 562.607 467.837 570.67 463.552 576.007C448.579 594.651 435.689 614.793 423.891 635.566C375.361 721.027 342.298 812.914 310.585 905.607C294.119 953.738 277.176 1001.54 249.379 1044.5C223.329 1084.76 190.841 1120.45 156.413 1153.66C147.451 1162.3 138.351 1170.8 129.153 1179.19C128.351 1179.92 127.163 1178.75 127.955 1177.99Z" fill-opacity="0.45" stroke-width="1.79684"/>
<path d="M554.668 1186.46C518.834 1118.15 493.699 1044.3 479.536 968.509C464.431 887.673 463.212 805.257 462.652 723.278C462.582 712.947 462.521 702.616 462.44 692.285C462.369 683.256 465.389 665.766 458.733 658.895C450.029 649.911 437.661 658.687 432.609 666.98C427.368 675.583 424.479 685.843 420.887 695.206C405.882 734.317 390.947 773.456 375.987 812.585C360.631 852.746 345.243 892.894 329.85 933.04C315.869 969.506 302.778 1006.58 285.293 1041.56C250.641 1110.88 198.743 1172.54 136.448 1218.65C134.854 1219.83 132.735 1217.11 134.311 1215.88C192.518 1170.23 242.218 1114.96 276.939 1049.32C296.534 1012.29 310.56 972.6 325.537 933.557C341.135 892.896 356.738 852.236 372.372 811.59C388.207 770.426 404.064 729.271 419.85 688.089C424.469 676.04 428.691 658.987 441.872 653.446C452.716 648.887 463.987 654.023 465.521 665.927C466.626 674.496 465.907 683.656 465.973 692.285C466.063 703.704 466.126 715.123 466.205 726.541C466.354 748.293 466.553 770.045 467.055 791.791C468.046 834.652 470.224 877.533 475.532 920.098C487.06 1012.56 515.136 1101.96 556.692 1185.28C557.361 1186.62 555.372 1187.8 554.668 1186.46Z" fill-opacity="0.45" stroke-width="1.79684"/>
<path d="M209.114 1178.35C254.525 1118.65 297.341 1056.16 328.682 987.768C345.461 951.153 357.487 912.899 369.848 874.641C376.171 855.077 382.486 835.51 388.884 815.971C393.989 800.385 399.401 784.736 407.387 770.347C412.166 761.735 422.394 741.705 434.357 742.303C446.347 742.903 448.247 757.658 448.012 766.744C447.545 784.848 448.285 802.958 449.483 821.022C453.099 875.552 460.696 929.958 471.507 983.517C484.647 1048.62 502.229 1114.5 532.872 1173.75C534.008 1175.95 530.687 1177.9 529.547 1175.7C504.028 1126.34 487.781 1072.41 475.183 1018.47C462.726 965.138 453.933 910.861 448.502 856.366C446.404 835.283 444.792 814.131 444.157 792.952C443.917 784.954 443.81 776.947 444.008 768.947C444.171 762.358 445.102 754.158 439.536 749.413C429.24 740.639 417.914 760.161 413.336 767.612C404.175 782.523 398.218 799.091 392.709 815.619C386.571 834.031 380.624 852.506 374.574 870.947C363.005 906.208 351.974 941.734 337.213 975.828C305.281 1049.58 259.663 1116.22 210.358 1179.32C209.81 1180.01 208.569 1179.07 209.114 1178.35Z" fill-opacity="0.45" stroke-width="1.79684"/>
<path d="M511.866 1176.98C492.616 1127.69 476.38 1076.97 462.263 1025.98C448.403 975.921 437.287 925.039 430.832 873.469C430.05 867.236 429.338 860.994 428.698 854.745C427.992 847.861 428.253 839.552 424.532 833.47C418.777 824.065 408.937 827.169 404.347 835.543C401.138 841.394 399.301 848.094 397.095 854.368C388.126 879.844 379.507 905.44 370.638 930.95C353.895 979.102 337.323 1028.4 312.263 1072.98C284.935 1121.61 249.441 1165.6 211.143 1205.98C209.453 1207.76 206.778 1205.08 208.453 1203.29C245.352 1163.93 279.79 1121.8 306.734 1074.9C334.626 1026.35 352.355 972.144 370.537 919.412C379.729 892.746 387.909 865.46 398.354 839.257C400.901 832.864 404.935 825.025 412.36 823.488C420.275 821.85 426.757 827.946 429.402 834.857C433.187 844.743 432.608 856.824 433.794 867.236C435.493 882.141 437.599 896.999 440.055 911.798C444.68 939.665 450.538 967.322 457.348 994.736C472.679 1056.45 493.714 1116.19 513.498 1176.53C513.843 1177.59 512.254 1177.98 511.866 1176.98Z" fill-opacity="0.45" stroke-width="1.79684"/>
<path d="M253.551 1173.07C288.075 1129.46 318.34 1082.97 341.881 1032.49C353.765 1007.01 363.99 980.75 372.459 953.94C376.712 940.481 380.442 926.884 383.87 913.196C386.757 901.663 389.759 889.449 397.152 879.841C402.206 873.272 409.647 869.384 417.295 874.469C425.195 879.722 426.108 889.917 427.422 898.453C429.691 913.208 432.541 927.876 435.514 942.503C443.735 982.95 453.261 1023.15 463.717 1063.07C474.272 1103.38 484.881 1144.61 501.358 1182.99C502.279 1185.13 499.124 1187 498.194 1184.84C485.041 1154.23 475.944 1121.79 467.122 1089.73C456.317 1050.46 446.674 1010.85 437.981 971.057C434.384 954.593 430.925 938.094 427.838 921.525C426.617 914.972 425.455 908.404 424.419 901.819C423.865 898.305 423.474 894.75 422.777 891.263C420.648 880.623 412.031 870.255 401.391 880.087C391.412 889.307 389.008 907.014 385.818 919.519C382.558 932.297 378.905 944.978 374.865 957.532C367.173 981.434 358.079 1004.88 347.673 1027.73C323.694 1080.4 292.859 1130.63 254.835 1174.36C254.057 1175.25 252.841 1173.97 253.551 1173.07Z" fill-opacity="0.45" stroke-width="1.79684"/>
<path d="M475.618 1176.58C471.009 1158.99 463.457 1142.3 457.773 1125.05C452.105 1107.84 447.732 1090.23 443.895 1072.53C436.217 1037.11 430.581 1001.18 420.374 966.353C417.975 958.166 415.318 950.056 412.333 942.066C410.741 937.804 406.452 922.105 397.681 928.365C394.23 930.828 392.998 936.888 392.135 940.696C388.34 957.474 384.697 974.097 379.485 990.522C369.046 1023.42 354.972 1055.08 339.021 1085.65C320.556 1121.04 299.956 1155.68 277.76 1188.86C276.543 1190.68 273.639 1189.03 274.797 1187.13C315.636 1119.81 357.99 1053.39 379.871 976.938C382.296 968.465 384.483 959.919 386.363 951.307C388.007 943.783 388.507 935.003 392.988 928.445C399.944 918.26 409.113 924.729 412.934 933.631C428.231 969.265 434.701 1008.57 442.142 1046.39C446.421 1068.13 450.859 1089.88 456.945 1111.2C463.177 1133.05 472.55 1153.86 477.519 1176.06C477.796 1177.29 475.941 1177.82 475.618 1176.58Z" fill-opacity="0.45" stroke-width="1.79684"/>
<path d="M457.976 1180.47C443.77 1152.39 434.853 1121.1 428.937 1090.3C426.037 1075.19 424.276 1060.03 422.717 1044.74C421.771 1035.45 420.585 1024.38 411.717 1019.03C400.88 1012.5 394.708 1021.83 389.883 1030.19C374.437 1056.95 360.843 1084.71 346.339 1111.97C332.19 1138.56 317.435 1166.15 298.012 1189.33C296.788 1190.79 294.267 1188.86 295.355 1187.28C310.897 1164.61 325.665 1141.95 338.793 1117.76C351.656 1094.06 363.648 1069.9 376.557 1046.23C383.964 1032.65 395.523 1001.74 415.693 1017.23C423.706 1023.38 425.4 1033.93 426.326 1043.36C427.787 1058.27 429.427 1073.08 432.172 1087.83C438.088 1119.6 448.426 1149.57 459.537 1179.81C459.871 1180.71 458.412 1181.33 457.976 1180.47Z" fill-opacity="0.45" stroke-width="1.79684"/>
<path d="M440.238 1171.35C429.237 1150.25 424.481 1126.48 420.162 1103.28C417.805 1090.61 415.648 1077.89 412.952 1065.29C411.787 1059.84 410.818 1054.2 409.024 1048.92C408.361 1046.62 407.243 1044.56 405.668 1042.75C403.262 1042.81 400.859 1042.86 398.453 1042.92C396.32 1044.03 394.854 1048.64 393.891 1050.77C372.664 1097.74 348.997 1144.14 320.001 1186.85C318.858 1188.53 316.148 1187.01 317.24 1185.23C332.798 1159.94 348.187 1134.63 362.023 1108.33C369.167 1094.75 375.987 1081 382.468 1067.08C385.491 1060.59 388.239 1053.96 391.325 1047.5C392.975 1044.05 394.846 1040.16 398.492 1038.42C404.818 1035.4 409.61 1040.51 411.888 1046C417.002 1058.32 418.416 1073.17 420.765 1086.2C425.96 1115.02 431.424 1143.19 441.928 1170.63C442.302 1171.61 440.718 1172.27 440.238 1171.35Z" fill-opacity="0.45" stroke-width="1.79684"/>
<path d="M415.437 1176.56C412.675 1160.09 411.393 1143.39 408.718 1126.89C407.378 1118.62 405.872 1110.37 404.169 1102.17C403.604 1099.45 403.168 1094.03 401.152 1091.94C398.247 1090.91 395.343 1089.88 392.437 1088.85C391.515 1089.63 390.592 1090.41 389.669 1091.18C388.038 1092.91 386.866 1095.11 385.74 1097.17C368.701 1128.33 356.706 1162.23 339.307 1193.2C338.55 1194.55 336.13 1193.63 336.74 1192.12C344.964 1171.66 355.593 1151.96 365.118 1132.08C370.347 1121.16 375.529 1110.22 380.807 1099.33C383.343 1094.09 386.462 1086.86 392.62 1084.95C406.627 1080.62 408.161 1104.05 409.614 1112.04C413.426 1133.04 417.209 1154.98 416.886 1176.37C416.875 1177.16 415.579 1177.41 415.437 1176.56Z" fill-opacity="0.45" stroke-width="1.79684"/>
<path d="M396.585 1177.28C396.853 1169.89 397.334 1162.51 397.665 1155.12C397.776 1152.63 397.955 1150.09 397.745 1147.6C398.016 1141.01 393.833 1138.28 385.196 1139.43C384.539 1140.5 383.912 1141.59 383.321 1142.71C376.758 1154.46 371.775 1166.92 365.674 1178.88C364.988 1180.22 362.729 1179.29 363.217 1177.84C366.734 1167.43 372.002 1157.42 377.081 1147.69C379.692 1142.69 382.928 1133.01 389.946 1132.95C407.379 1132.8 399.088 1168.67 398.185 1177.28C398.079 1178.28 396.547 1178.33 396.585 1177.28Z" fill-opacity="0.45" stroke-width="1.79684"/>
<path d="M63.3499 1103.19C63.3499 1103.18 63.3641 1103.18 63.3641 1103.19C63.3641 1103.2 63.3499 1103.2 63.3499 1103.19Z" fill-opacity="0.45" stroke-width="1.79684"/>
<path d="M-57.3705 1113.65C-13.5749 1125.72 33.2224 1114.81 71.5697 1091.91C110.445 1068.69 140.339 1033.15 165.189 995.881C218.578 915.817 260.556 826.472 294.159 736.488C311.44 690.218 327.22 642.844 334.622 593.86C342.373 542.567 337.627 491.43 329.463 440.504C313.453 340.663 290.331 241.169 290.742 139.511C291.118 45.7588 313.153 -51.8678 373.605 -125.778C375.167 -127.686 377.833 -124.969 376.307 -123.076C247.73 36.5336 303.085 253.507 332.771 436.293C340.955 486.692 346.158 537.372 339.267 588.256C332.73 636.543 317.743 683.239 301.04 728.855C268.035 818.992 226.436 907.425 174.575 988.322C148.546 1028.92 117.292 1068.08 75.6563 1093.57C35.8745 1117.92 -12.4567 1129.32 -57.9023 1115.58C-59.1314 1115.21 -58.6179 1113.31 -57.3705 1113.65Z" fill-opacity="0.45" stroke-width="1.79684"/>
<path d="M-71.0871 1103.92C-27.2915 1115.99 19.5058 1105.08 57.8531 1082.18C96.7288 1058.96 126.623 1023.42 151.473 986.15C204.861 906.086 246.84 816.741 280.443 726.758C297.724 680.487 313.504 633.113 320.905 584.129C328.656 532.835 323.91 481.699 315.747 430.774C299.736 330.932 276.614 231.44 277.025 129.78C277.401 36.0281 299.436 -61.5985 359.889 -135.508C361.451 -137.417 364.116 -134.7 362.59 -132.807C234.013 26.8029 289.368 243.777 319.055 426.563C327.238 476.961 332.441 527.64 325.55 578.525C319.013 626.812 304.027 673.508 287.324 719.123C254.319 809.262 212.72 897.694 160.858 978.592C134.829 1019.19 103.575 1058.35 61.9398 1083.84C22.158 1108.19 -26.1733 1119.59 -71.6188 1105.85C-72.848 1105.48 -72.3361 1103.57 -71.0871 1103.92Z" fill-opacity="0.45" stroke-width="1.79684"/>
<path d="M-87.4763 1096.01C-43.6806 1108.08 3.11665 1097.17 41.4639 1074.27C80.3396 1051.05 110.234 1015.51 135.083 978.246C188.472 898.182 230.45 808.838 264.053 718.855C281.334 672.583 297.113 625.209 304.516 576.225C312.267 524.932 307.521 473.795 299.358 422.869C283.347 323.028 260.225 223.536 260.636 121.876C261.012 28.1239 283.047 -69.5026 343.499 -143.412C345.06 -145.321 347.727 -142.604 346.201 -140.711C217.624 18.9004 272.979 235.872 302.664 418.658C310.849 469.057 316.052 519.737 309.161 570.621C302.623 618.909 287.638 665.606 270.935 711.22C237.93 801.358 196.331 889.792 144.468 970.689C118.438 1011.29 87.1845 1050.45 45.5506 1075.93C5.76878 1100.29 -42.5625 1111.68 -88.008 1097.95C-89.2388 1097.58 -88.7253 1095.67 -87.4763 1096.01Z" fill-opacity="0.45" stroke-width="1.79684"/>
<path d="M-111.004 1085.41C-67.2085 1097.48 -20.4112 1086.57 17.9361 1063.67C56.8118 1040.45 86.7058 1004.91 111.556 967.645C164.944 887.581 206.923 798.237 240.526 708.254C257.807 661.982 273.587 614.608 280.988 565.624C288.739 514.329 283.993 463.194 275.83 412.268C259.819 312.427 236.697 212.935 237.108 111.275C237.484 17.5227 259.519 -80.1038 319.972 -154.014C321.534 -155.922 324.199 -153.205 322.673 -151.312C194.096 8.29761 249.451 225.271 279.138 408.057C287.321 458.456 292.524 509.136 285.633 560.02C279.096 608.308 264.11 655.003 247.407 700.619C214.402 790.756 172.803 879.191 120.941 960.086C94.9123 1000.69 63.6583 1039.85 22.0228 1065.33C-17.759 1089.68 -66.0903 1101.08 -111.536 1087.35C-112.765 1086.97 -112.253 1085.07 -111.004 1085.41Z" fill-opacity="0.45" stroke-width="1.79684"/>
<path d="M-126.012 1078.43C-82.216 1090.5 -35.4188 1079.59 2.92851 1056.69C41.8042 1033.47 71.6982 997.932 96.5479 960.665C149.937 880.601 191.915 791.255 225.518 701.272C242.799 655.001 258.579 607.626 265.981 558.644C273.732 507.349 268.986 456.213 260.822 405.288C244.812 305.446 221.69 205.953 222.1 104.294C222.477 10.5424 244.512 -87.0842 304.964 -160.994C306.526 -162.902 309.192 -160.186 307.666 -158.292C179.088 1.31714 234.443 218.291 264.13 401.077C272.314 451.475 277.517 502.154 270.626 553.04C264.087 601.326 249.102 648.022 232.399 693.637C199.394 783.776 157.795 872.209 105.934 953.106C79.9047 993.706 48.6507 1032.87 7.01521 1058.35C-32.7666 1082.7 -81.0979 1094.1 -126.543 1080.36C-127.774 1079.99 -127.261 1078.09 -126.012 1078.43Z" fill-opacity="0.45" stroke-width="1.79684"/>
<path d="M387.928 -114.618C329.708 -33.8603 307.225 65.2523 308.144 163.666C308.673 220.263 316.271 276.524 326.643 332.085C331.762 359.505 337.556 386.795 343.545 414.037C349.339 440.404 353.901 468.239 363.35 493.601C375.576 526.418 408.98 508.22 422.636 487.37C433.637 470.575 442.056 451.127 461.524 442.514C480.259 434.225 501.59 436.975 521.467 435.807C547.53 434.276 567.254 422.73 581.53 400.806C608.227 359.802 614.338 307.523 623.981 260.572C633.065 216.339 642.416 172.147 650.025 127.628C657.605 83.2655 663.738 38.4146 664.748 -6.63666C665.594 -44.2882 663.249 -83.4488 649.707 -118.967C646.667 -126.941 642.961 -134.613 638.629 -141.964C637.374 -144.095 640.688 -146.028 641.941 -143.901C660.448 -112.498 666.555 -75.3848 668.243 -39.4494C670.369 5.82053 665.566 51.2843 658.945 96.0159C651.883 143.706 642.242 190.969 632.507 238.172C622.392 287.212 615.981 339.194 594.617 384.925C585.613 404.195 572.513 423.381 552.713 432.723C532.642 442.19 509.936 439.137 488.485 440.563C475.213 441.444 461.809 444.39 451.48 453.305C442.139 461.369 436.248 472.498 429.938 482.899C420.31 498.769 406.285 515.78 385.899 515.937C362.464 516.116 357.658 489.398 353.028 471.656C345.569 443.068 339.531 414.075 333.437 385.172C321.362 327.91 310.866 270.138 306.567 211.707C299.085 110.035 311.525 2.26892 365.575 -86.2582C371.867 -96.5669 378.806 -106.41 386.222 -115.935C386.973 -116.899 388.652 -115.619 387.928 -114.618Z" fill-opacity="0.45" stroke-width="1.79684"/>
<path d="M641.006 -105.349C662.707 -51.2579 657.858 8.56815 649.923 64.9982C641.185 127.12 628.857 188.738 613.103 249.461C605.288 279.582 596.627 309.484 587.134 339.118C579.886 361.736 573.933 389.578 556.998 407.349C538.897 426.346 513.635 420.533 490.181 422.616C461.096 425.196 435.613 440.934 418.251 463.998C412.952 471.036 406.927 479.833 397.69 481.688C387.837 483.667 380.674 475.9 375.446 468.639C361.737 449.601 357.625 426.492 353.492 403.938C350.219 386.091 345.69 368.455 342.04 350.679C327.955 282.086 318.517 212.082 319.4 141.94C320.384 63.7144 334.21 -19.1756 380.527 -84.1949C386.07 -91.9756 392.073 -99.334 398.55 -106.353C400.1 -108.034 402.514 -105.561 401.043 -103.861C349.313 -44.1463 329.156 33.7525 324.468 111.163C320.186 181.854 327.701 252.991 340.51 322.481C344.596 344.649 349.384 366.668 354.188 388.69C355.636 395.331 356.967 401.959 358.094 408.659C360.289 421.688 363.027 434.76 367.917 447.076C372.59 458.847 385.036 485.483 401.237 476.614C411.502 470.993 417.189 458.413 425.19 450.179C433.066 442.077 442.336 435.25 452.407 430.125C462.499 424.989 473.392 421.456 484.606 419.848C496.468 418.146 508.397 419.254 520.316 418.701C534.691 418.034 547.488 413.616 556.907 402.351C564.933 392.751 569.576 380.687 573.643 369.012C583.443 340.879 592.19 312.341 600.302 283.682C616.39 226.842 629.435 169.147 639.401 110.924C649.221 53.5565 659.606 -6.71515 649.753 -64.7802C647.434 -78.4483 643.95 -91.8216 639.254 -104.865C638.853 -105.98 640.58 -106.412 641.006 -105.349Z" fill-opacity="0.45" stroke-width="1.79684"/>
<path d="M635.039 -107.531C653.377 -66.9029 651.012 -21.5948 645.944 21.6442C640.209 70.5933 630.142 118.953 618.406 166.785C606.517 215.251 592.988 263.305 579.835 311.439C570.53 345.493 563.003 401.484 516.749 400.449C505.284 400.194 494.261 398.688 482.816 400.454C470.96 402.284 459.466 406.323 449.056 412.28C439.47 417.765 431.939 425.052 423.918 432.473C418.443 437.54 412.213 442.626 404.513 443.454C389.396 445.083 379.804 430.462 375.179 418.076C369.512 402.9 366.058 386.651 362.49 370.893C346.114 298.548 339.193 223.282 339.632 149.158C339.918 100.782 345.62 53.2278 360.754 7.13785C375.597 -38.0725 397.309 -81.0216 419.912 -122.771C420.997 -124.777 423.974 -123.008 422.956 -120.992C404.358 -84.2054 384.933 -47.8112 370.521 -9.1012C356.283 29.1533 347.449 69.0461 344.775 109.799C342.043 151.472 343.627 193.396 346.791 234.997C349.172 266.295 352.052 297.722 357.446 328.659C360.537 346.396 364.188 364.036 368.394 381.539C371.841 395.882 374.729 412.142 381.986 425.141C386.949 434.033 395.3 442.358 406.362 439.846C416.778 437.481 424.069 427.276 431.737 420.632C445.191 408.982 461.81 401.047 479.316 397.843C488.682 396.128 497.944 396.027 507.416 396.692C519.557 397.541 531.133 397.838 541.574 390.544C560.689 377.189 565.521 351.99 571.279 330.949C583.764 285.327 596.539 239.774 608.392 193.986C621.509 143.309 633.275 92.1863 640.62 40.32C647.501 -8.2713 653.289 -60.4838 633.775 -107C633.475 -107.713 634.718 -108.245 635.039 -107.531Z" fill-opacity="0.45" stroke-width="1.79684"/>
<path d="M631.204 -96.4482C652.957 -7.57809 628.233 84.9116 605.512 170.951C599.546 193.539 593.571 216.131 588.34 238.904C583.574 259.65 580.1 280.648 575.493 301.423C568.822 331.499 555.371 379.501 519.025 384.552C509.48 385.879 499.847 384.608 490.283 384.3C479.381 383.945 468.638 385.234 458.25 388.647C447.86 392.059 439.034 397.494 430.304 403.918C424.095 408.487 417.28 413.606 409.268 413.993C393.39 414.757 386.515 397.019 381.897 384.817C374.936 366.426 370.42 347.112 366.973 327.784C360.295 290.377 357.897 252.013 356.2 214.094C354.95 186.173 355.4 158.3 356.563 130.387C358.543 82.9105 367.394 36.6996 383.136 -8.15955C399.416 -54.5477 424.044 -95.3168 452.452 -135.228C453.635 -136.891 456.395 -135.342 455.229 -133.606C431.926 -98.9297 408.673 -64.858 393.448 -25.6841C378.266 13.3755 367.226 54.1794 362.676 95.8961C355.897 158.045 359.265 221.339 364.886 283.407C368.144 319.39 373.916 356.974 388.192 390.419C391.993 399.326 397.851 410.819 409.268 410.236C419.919 409.693 428.568 399.919 437.073 394.547C451.258 385.592 467.86 380.737 484.629 380.569C494.104 380.475 503.548 381.913 513.029 381.527C526.168 380.992 536.45 375.616 544.765 365.516C557.036 350.612 564.1 332.099 569.033 313.648C574.049 294.89 576.997 275.654 580.973 256.667C585.325 235.88 590.454 215.268 595.796 194.717C620.568 99.4129 648.752 3.06519 629.692 -96.0307C629.503 -97.0114 630.963 -97.4405 631.204 -96.4482Z" fill-opacity="0.45" stroke-width="1.79684"/>
<path d="M624.964 -88.1283C634.005 -45.1626 628.31 -1.02567 621.349 41.8141C614.13 86.2393 604.411 130.209 592.461 173.597C580.34 217.61 566.874 261.268 553.877 305.029C546.073 331.306 538.264 374.605 501.808 369.485C490.14 367.845 480.017 366.188 468.351 369.142C457.937 371.777 448.527 376.803 438.724 381.021C424.933 386.953 409.609 388.45 399.491 375.44C391.011 364.535 389.167 349.82 386.959 336.62C385.274 326.552 383.536 316.49 381.916 306.41C372.774 249.503 369.481 192.243 370.852 134.627C371.962 87.9836 375.018 42.9008 391.07 -1.31891C406.559 -43.9881 429.782 -83.3226 454.955 -120.913C456.331 -122.97 459.683 -121.037 458.293 -118.96C436.481 -86.369 416.101 -52.5341 401.036 -16.2327C385.624 20.9119 377.989 58.6694 375.91 98.7411C372.762 159.412 373.233 220.273 381.431 280.547C384.131 300.405 387.595 320.145 390.896 339.91C393.197 353.684 396.013 372.668 409.703 379.924C420.62 385.709 432.583 380.221 442.725 375.529C450.777 371.804 458.821 368.093 467.46 365.906C475.254 363.935 483.192 363.246 491.178 364.338C501.911 365.799 512.385 368.986 522.378 362.983C536.795 354.322 541.577 334.691 546.025 319.719C558.297 278.405 570.785 237.145 582.77 195.745C595.741 150.937 606.822 105.67 615.151 59.7611C623.944 11.3056 632.004 -38.6292 623.377 -87.6909C623.195 -88.718 624.744 -89.1752 624.964 -88.1283Z" fill-opacity="0.45" stroke-width="1.79684"/>
<path d="M458.419 -94.1929C415.305 -44.3923 392.646 16.343 389.767 81.8974C388.238 116.668 388.661 151.583 388.326 186.384C387.973 223.018 388.795 259.3 396.228 295.314C399.604 311.674 404.06 327.831 409.578 343.598C411.113 347.988 412.52 353.211 416.085 356.426C420.466 360.378 426.466 360.264 431.832 359.191C439.79 357.599 447.2 353.943 455 351.776C470.534 347.456 487.003 349.78 502.314 345.412C516.812 341.275 526.718 329.232 533.51 316.371C540.826 302.517 545.003 287.098 549.799 272.259C555.15 255.705 560.368 239.11 565.376 222.45C575.393 189.132 584.596 155.554 592.298 121.62C609.637 45.2182 619.283 -33.3631 612.055 -111.669C611.833 -114.057 615.56 -114.04 615.782 -111.669C622.607 -38.3195 614.578 35.4181 599.316 107.249C591.324 144.869 581.369 182.053 570.385 218.905C564.963 237.092 559.284 255.205 553.45 273.264C548.669 288.061 544.445 303.317 537.33 317.214C531.599 328.406 523.69 339.128 512.489 345.317C498.31 353.149 481.777 350.484 466.372 353.173C452.35 355.618 437.042 365.689 422.59 363.519C408.822 361.45 405.852 345.306 402.349 334.23C379.215 261.069 384.36 184.411 385.324 108.745C385.82 69.9935 388.715 31.9013 401.746 -4.89047C413.701 -38.6541 432.214 -69.7722 456.529 -96.0814C457.707 -97.3553 459.534 -95.4801 458.419 -94.1929Z" fill-opacity="0.45" stroke-width="1.79684"/>
<path d="M602.77 -89.8398C604.615 -17.053 594.297 56.3318 578.306 127.204C570.274 162.813 560.528 198.017 549.403 232.778C543.805 250.273 537.989 267.736 531.574 284.953C526.768 297.847 521.058 311.099 510.925 320.762C500.628 330.579 486.918 334.75 473.323 337.662C460.448 340.42 445.576 344.171 432.787 339.138C421.596 334.733 415.604 324.249 412.503 313.159C408.333 298.245 407.326 282.011 405.711 266.671C398.186 195.185 398.57 122.121 408.978 50.9314C413.838 17.6813 421.192 -15.9713 437.603 -45.6168C450.96 -69.7426 471.305 -88.0739 490.46 -107.472C492.058 -109.092 494.503 -106.632 492.953 -104.979C477.304 -88.3058 459.82 -73.2048 447.136 -53.9889C431.621 -30.4809 423.241 -3.39484 417.64 23.9795C404.452 88.4372 402.44 155.946 406.042 221.482C406.957 238.122 408.324 254.739 410.161 271.303C411.878 286.788 412.539 303.855 418.48 318.456C425.727 336.262 441.94 339.252 459.38 336.496C474.015 334.183 490.268 331.22 502.664 322.639C515.759 313.574 522.545 298.379 527.924 283.947C533.793 268.195 539.146 252.231 544.326 236.242C554.772 204.001 564.045 171.372 571.919 138.407C589.852 63.329 598.889 -12.7195 600.597 -89.8398C600.626 -91.2395 602.735 -91.2395 602.77 -89.8398Z" fill-opacity="0.45" stroke-width="1.79684"/>
<path d="M593.45 -89.044C593.409 -24.689 585.901 39.5516 572.627 102.499C565.842 134.677 557.497 166.526 547.619 197.894C538.306 227.458 528.29 257.296 514.513 285.124C504.063 306.232 486.555 329.653 460.062 327.692C433.359 325.714 425.488 297.54 424.344 275.171C420.978 209.45 425.747 142.777 435.893 77.8244C445.654 15.3297 457.322 -54.7834 500.258 -104.072C501.817 -105.863 504.403 -103.252 502.859 -101.47C467.19 -60.2401 454.791 -5.09378 444.986 47.127C433.639 107.564 427.803 169.015 427.481 230.504C427.403 245.382 427.486 260.312 428.253 275.171C429.052 290.668 431.773 308.188 444.986 318.21C457.909 328.012 475.607 324.399 487.781 315.203C498.893 306.811 506.048 294.427 512.063 282.119C525.363 254.9 535.156 225.813 544.269 196.971C553.075 169.096 560.677 140.842 567.045 112.314C581.815 46.1298 589.469 -21.3246 592.098 -89.044C592.133 -89.9087 593.45 -89.917 593.45 -89.044Z" fill-opacity="0.45" stroke-width="1.79684"/>
<path d="M584.677 -87.1737C584.235 -27.838 575.779 32.0791 563.34 90.0149C551.061 147.205 534.521 204.555 511.382 258.361C503.263 277.241 490.089 306.459 466.526 309.218C439.281 312.411 439.039 282.681 438.377 263.521C436.215 201.147 443.184 138.179 450.526 76.312C454.513 42.7141 460.46 9.43912 472.175 -22.4079C483.812 -54.0412 498.3 -85.1345 513.375 -115.255C514.149 -116.803 516.893 -115.698 516.213 -114.058C505.495 -88.209 492.87 -63.1936 482.207 -37.3151C471.592 -11.5575 464.002 14.9455 459.286 42.4059C454.381 70.9714 451.841 99.9128 448.997 128.737C446.172 157.36 443.596 186.026 442.516 214.776C441.966 229.393 441.801 244.027 442.187 258.649C442.52 271.224 440.317 290.707 449.858 300.275C461.79 312.238 478.929 302.413 487.838 291.995C496.372 282.011 502.422 269.834 507.652 257.879C529.738 207.414 545.437 153.315 557.588 99.6726C571.558 38.0078 578.378 -24.187 582.549 -87.1737C582.64 -88.5254 584.687 -88.5569 584.677 -87.1737Z" fill-opacity="0.45" stroke-width="1.79684"/>
<path d="M572.131 -93.5767C573.269 -39.0483 564.717 17.0173 554.141 70.3761C543.422 124.452 528.944 178.682 508.449 229.929C504.105 240.791 499.268 251.487 493.34 261.582C488.612 269.635 482.592 281.043 473.65 285.115C467.218 288.041 460.442 285.509 456.611 279.708C450.654 270.69 453.617 257.678 454.379 247.687C458.784 189.932 463.307 132.183 467.801 74.4346C470.228 43.2386 473.579 12.5628 482.678 -17.4984C492.114 -48.6712 504.023 -79.3089 515.635 -109.723C516.452 -111.863 519.901 -110.985 519.124 -108.761C501.52 -58.3537 480.213 -9.60501 474.424 43.9659C468.811 95.8835 466.013 148.219 461.975 200.28C460.959 213.357 459.954 226.437 458.932 239.512C458.083 250.336 452.806 270.244 461.004 279.18C477.649 297.321 502.876 234.109 506.93 223.538C524.723 177.125 538.224 128.787 548.491 80.1861C554.511 51.682 559.316 22.9129 562.88 -5.99872C566.471 -35.1389 567.852 -64.3669 570.501 -93.5767C570.594 -94.6071 572.11 -94.6452 572.131 -93.5767Z" fill-opacity="0.45" stroke-width="1.79684"/>
<path d="M559.227 -97.0693C561.575 -64.3013 558.26 -30.5658 554.377 1.97693C550.683 32.9311 545.263 63.6731 538.216 94.0392C530.962 125.3 521.917 156.155 511.322 186.446C502.017 213.05 493.353 244.852 473.087 265.455C472.249 266.303 470.947 266.021 470.324 265.099C465.292 257.639 465.504 249.173 467.072 240.58C469.304 228.36 472.483 216.345 474.537 204.073C479.089 176.863 481.317 149.331 483.164 121.826C486.697 69.2043 489.315 16.4882 501.954 -34.9292C509.291 -64.7817 518.414 -94.5133 529.044 -123.357C529.761 -125.303 532.814 -124.54 532.203 -122.486C522.812 -90.8639 511.668 -59.8965 504.174 -27.7116C496.454 5.44077 492.717 39.2193 490.199 73.1171C487.791 105.544 486.282 138.049 482.705 170.376C481.02 185.595 478.905 200.777 476.021 215.815C473.284 230.086 464.364 249.971 473.361 263.323L470.599 262.968C481.622 251.775 487.996 237.696 493.782 223.312C499.575 208.909 504.977 194.341 510.031 179.661C520.143 150.289 528.737 120.403 535.786 90.1513C543.033 59.0464 548.587 27.5407 552.272 -4.18539C555.865 -35.1163 556.347 -66.0605 558.497 -97.0693C558.53 -97.5398 559.193 -97.5398 559.227 -97.0693Z" fill-opacity="0.45" stroke-width="1.79684"/>
<path d="M552.487 -96.8915C548.257 -61.2228 542.81 -25.7033 537.684 9.84609C535.012 28.396 532.342 46.946 529.642 65.4926C527.399 80.8951 525.686 96.7333 520.052 111.359C518.001 116.685 511.114 134.94 502.044 129.881C496.215 126.627 497.578 112.803 497.462 107.534C496.718 73.8333 500.759 40.2304 507.472 7.24532C515.353 -31.4747 526.705 -69.3714 537.638 -107.308C538.284 -109.551 541.793 -108.597 541.142 -106.342C524.305 -47.9837 506.334 10.7257 501.915 71.6318C500.848 86.3452 500.348 101.274 501.232 116.01C501.35 117.99 501.214 120.922 501.988 122.746C504.703 129.155 508.932 125.004 511.572 121.118C515.778 114.929 518.192 107.171 520.122 100C523.804 86.317 525.337 72.0575 527.402 58.068C529.736 42.2613 532.1 26.4595 534.458 10.6578C539.815 -25.2809 544.839 -61.2858 551.099 -97.0787C551.235 -97.8539 552.582 -97.685 552.487 -96.8915Z" fill-opacity="0.45" stroke-width="1.79684"/>
<path d="M-52.9818 1070.04C19.6095 1042.15 71.3102 980.856 110.308 915.774C133.288 877.425 153.12 837.221 172.669 797.046C192.026 757.263 210.486 716.943 225.239 675.194C253.916 594.042 266.638 507.292 241.439 423.495C218.124 345.955 169.381 278.527 115.623 219.154C50.9745 147.754 -22.5445 84.6029 -82.2462 8.7168C-83.805 6.73718 -81.022 3.91614 -79.4467 5.91724C24.7812 138.399 178.346 237.99 238.326 401.753C252.398 440.176 259.722 480.652 259.364 521.597C258.983 565.296 250.453 608.577 237.605 650.229C224.464 692.825 206.873 733.92 187.896 774.204C168.392 815.609 148.185 856.907 125.731 896.801C84.7579 969.593 29.6283 1043.77 -52.4003 1072.15C-53.7471 1072.62 -54.2755 1070.53 -52.9818 1070.04Z" fill-opacity="0.45" stroke-width="1.79684"/>
<path d="M-47.4928 1055.4C33.5087 1014.89 82.8554 933.883 124.194 856.716C147.462 813.284 168.543 768.719 189.629 724.2C211.279 678.487 231.679 632.147 238.688 581.633C248.092 513.837 238.781 439.207 208.017 377.509C187.209 335.774 158.65 297.972 129.194 262.038C71.1702 191.256 6.47894 125.952 -59.0372 62.1649C-60.8644 60.3824 -58.0649 57.5844 -56.236 59.3636C5.09241 119.083 65.5131 180.16 120.696 245.675C152.728 283.701 183.946 323.564 207.343 367.621C236.977 423.418 248.584 489.238 245.374 551.958C242.852 601.175 228.643 647.282 208.728 692.079C187.92 738.883 165.384 785.177 142.009 830.747C98.084 916.378 45.1774 1014.96 -46.5453 1057.02C-47.627 1057.52 -48.5861 1055.95 -47.4928 1055.4Z" fill-opacity="0.45" stroke-width="1.79684"/>
<path d="M-62.4146 1041.83C17.2601 1002.96 66.7343 925.314 108.208 850.195C131.894 807.292 153.305 763.18 174.723 719.118C196.046 675.248 216.272 630.741 223.511 582.09C233.452 515.251 223.975 441.381 192.86 380.849C171.94 340.149 143.412 303.44 114.05 268.56C55.9834 199.58 -8.59355 136.088 -73.9457 74.0908C-75.7729 72.3547 -73.0081 69.5948 -71.181 71.326C-9.81939 129.547 50.6758 189.113 106.014 253.161C137.73 289.87 168.684 328.383 192.062 371.075C221.959 425.672 233.798 490.532 230.366 552.319C227.719 599.986 213.489 644.65 193.778 687.846C173.151 733.056 150.819 777.738 127.708 821.726C83.3246 906.213 29.8349 1002.66 -61.4786 1043.43C-62.5487 1043.91 -63.4996 1042.36 -62.4146 1041.83Z" fill-opacity="0.45" stroke-width="1.79684"/>
<path d="M-81.5796 1041.83C-1.90496 1002.96 47.5693 925.314 89.0425 850.195C112.728 807.292 134.138 763.18 155.556 719.118C176.881 675.248 197.107 630.741 204.344 582.09C214.285 515.251 204.808 441.381 173.695 380.849C152.773 340.149 124.246 303.44 94.8834 268.56C36.8167 199.58 -27.7586 136.088 -93.1125 74.0908C-94.9396 72.3547 -92.1732 69.5948 -90.3477 71.326C-28.9861 129.547 31.5091 189.113 86.8475 253.161C118.564 289.87 149.519 328.383 172.895 371.075C202.792 425.672 214.633 490.532 211.199 552.319C208.552 599.986 194.322 644.65 174.613 687.846C153.986 733.056 131.652 777.738 108.543 821.726C64.1579 906.213 10.6698 1002.66 -80.6453 1043.43C-81.7155 1043.91 -82.6647 1042.36 -81.5796 1041.83Z" fill-opacity="0.45" stroke-width="1.79684"/>
<path d="M-101.115 1030.44C-21.5134 992.486 28.4478 916.199 70.3749 841.792C94.2324 799.457 115.865 755.91 137.481 712.406C158.798 669.502 178.633 625.85 185.342 577.988C194.384 513.482 184.569 442.516 153.913 384.522C132.893 344.755 104.392 309.025 75.1225 275.094C17.0177 207.736 -47.44 145.868 -112.635 85.47C-114.464 83.7771 -111.727 81.0504 -109.905 82.7385C-48.9888 139.178 11.0906 196.934 66.2302 259.104C98.1203 295.062 129.32 332.823 152.992 374.838C182.364 426.969 194.481 488.992 191.841 548.44C189.719 596.153 175.57 640.721 155.534 683.768C134.758 728.4 112.171 772.457 88.837 815.803C44.1369 898.842 -9.68575 992.589 -100.189 1032.02C-101.249 1032.48 -102.192 1030.95 -101.115 1030.44Z" fill-opacity="0.45" stroke-width="1.79684"/>
<path d="M-116.118 1018.55C-37.043 981.603 13.1834 907.171 55.3837 833.85C78.7509 793.254 99.9729 751.468 121.193 709.725C143.023 666.782 163.639 623.152 170.437 574.985C179.353 511.82 169.331 442.329 138.744 385.84C117.638 346.866 89.1606 311.973 59.9657 278.85C1.81618 212.88 -62.5537 152.405 -127.629 93.3807C-129.455 91.7241 -126.745 89.0273 -124.926 90.6789C-64.1622 145.8 -4.20038 202.222 50.9326 263.049C82.7664 298.167 113.954 335.072 137.732 376.261C166.983 426.93 179.301 487.453 176.856 545.601C174.892 592.384 160.93 636.022 141.014 678.09C120.131 722.192 97.3241 765.671 73.8128 808.425C28.7996 890.281 -25.3296 981.8 -115.202 1020.12C-116.252 1020.56 -117.188 1019.05 -116.118 1018.55Z" fill-opacity="0.45" stroke-width="1.79684"/>
<path d="M251.707 -87.8063C219.63 -28.1096 211.448 37.3155 208.569 104.145C207.115 137.878 204.517 172.294 210.135 205.776C212.86 222.01 218.086 237.103 222.817 252.785C225.738 262.469 226.89 274.607 218.452 282.063C209.888 289.632 199.339 284.392 191.487 278.586C179.822 269.957 168.289 260.833 157.912 250.68C147.575 240.565 138.203 229.325 128.527 218.589C103.867 191.233 79.3424 163.748 54.6053 136.466C14.4159 92.1404 -28.2831 49.7611 -66.9517 4.09192C-68.431 2.34262 -65.9661 -0.193542 -64.4073 1.54581C-31.351 38.5397 2.88805 74.4552 36.4247 111.012C62.7389 139.693 88.5014 168.873 114.579 197.77C139.862 225.788 164.586 257.561 196.842 277.907C206.336 283.895 217.736 283.174 220.841 270.778C222.95 262.358 219.232 253.695 216.552 245.851C211.523 231.129 207.837 216.013 205.657 200.606C201.297 169.787 203.528 138.358 204.834 107.389C207.633 40.9897 213.355 -31.2173 250.051 -88.7754C250.713 -89.8157 252.294 -88.898 251.707 -87.8063Z" fill-opacity="0.45" stroke-width="1.79684"/>
<path d="M237.319 -91.4394C214.543 -27.371 199.01 38.2562 195.604 106.355C193.937 139.716 194.913 173.215 198.625 206.41C199.744 216.425 205.974 233.208 196.356 240.843C187.384 247.964 175.934 242.847 167.713 237.348C133.732 214.603 108.806 183.098 83.1397 151.812C60.3722 124.06 37.9857 95.9916 15.8063 67.7658C-12.8866 31.249 -41.4421 -5.21475 -67.2659 -43.8486C-68.5878 -45.8265 -65.4288 -47.6288 -64.0953 -45.7022C-22.2428 14.7532 23.5473 72.2965 69.7963 129.437C91.2352 155.925 112.247 183.768 136.504 207.793C147.054 218.243 159.182 227.957 171.809 235.784C179.969 240.841 193.777 244.52 197.244 232.4C199.348 225.038 195.915 213.987 195.069 206.41C191.588 175.227 190.515 143.773 191.789 112.423C194.617 42.8531 208.303 -27.9259 235.906 -92.0341C236.25 -92.8325 237.611 -92.2626 237.319 -91.4394Z" fill-opacity="0.45" stroke-width="1.79684"/>
<path d="M224.182 -90.6793C207.51 -45.6545 196.809 0.417267 187.516 47.4465C182.695 71.8506 177.56 96.273 175.211 121.071C174.146 132.338 173.656 143.667 174.085 154.979C174.58 168.031 177.782 180.367 179.361 193.204C181.127 207.559 170.801 218.811 157.703 208.956C141.035 196.414 128.515 178.736 115.917 162.366C85.2857 122.567 54.9908 82.5105 25.0389 42.2002C-4.77549 2.0771 -38.5076 -38.972 -54.4568 -87.0713C-55.0449 -88.8421 -52.3696 -89.4948 -51.7103 -87.8283C-35.9433 -47.9471 -12.0908 -13.501 13.2493 20.806C40.8158 58.1262 68.6374 95.2559 96.7639 132.155C110.576 150.273 123.994 168.878 138.835 186.172C145.118 193.495 152.553 203.12 161.086 207.901C175.138 215.773 177.57 199.651 176.137 191.256C175.138 185.388 173.685 179.648 172.867 173.743C167.134 132.251 176.134 90.3095 184.281 49.7756C193.831 2.26265 203.134 -46.6931 222.881 -91.2276C223.204 -91.9581 224.462 -91.4363 224.182 -90.6793Z" fill-opacity="0.45" stroke-width="1.79684"/>
<path d="M213.205 -87.3564C199.933 -47.452 186.154 -8.09427 176.377 32.8836C171.446 53.5473 167.241 74.3766 163.786 95.3352C162.123 105.433 160.607 115.555 159.273 125.701C158.069 134.857 158.447 146.476 154.286 154.959C138.794 186.534 102.096 126.753 94.0074 114.813C70.1466 79.5831 47.6209 43.3794 24.5851 7.60641C0.888248 -29.1887 -27.0824 -66.5619 -37.5601 -109.786C-37.9858 -111.539 -35.337 -112.276 -34.8583 -110.531C-24.9455 -74.4487 -4.52368 -43.6768 15.5784 -12.5968C36.9412 20.4314 58.2543 53.4943 79.574 86.5505C89.5397 102.003 99.3249 117.632 110.475 132.268C116.006 139.525 121.87 146.58 128.246 153.112C132.694 157.668 138.484 163.707 146.01 160.098C152.737 156.871 153.681 147.541 154.486 141.125C159.083 104.463 165.22 68.1331 173.841 32.1845C183.57 -8.37753 195.182 -49.6088 212.192 -87.7838C212.447 -88.357 213.403 -87.9495 213.205 -87.3564Z" fill-opacity="0.45" stroke-width="1.79684"/>
<path d="M202.841 -87.4942C189.502 -52.3673 176.626 -17.3331 167.049 19.0512C162.209 37.4454 158.069 56.0202 154.634 74.7259C153.052 83.3415 151.629 91.9854 150.105 100.613C148.799 108.004 148.195 116.723 144.797 123.544C129.535 154.187 97.3885 98.0732 90.6696 87.5309C70.9038 56.5105 51.6001 25.0528 35.3577 -7.98854C26.8679 -25.2596 19.2197 -42.9747 12.9 -61.1618C9.71113 -70.3358 7.08883 -79.7201 3.59518 -88.7863C0.119761 -97.8012 -5.34517 -106.009 -6.09227 -115.819C-6.26455 -118.087 -2.88521 -117.981 -2.61353 -115.819C-1.55997 -107.409 3.07337 -100.21 6.19926 -92.4804C9.08662 -85.3341 11.3312 -77.9575 13.7183 -70.6339C19.1103 -54.1017 25.5212 -37.9421 32.8033 -22.1503C46.5294 7.60284 63.0236 35.9777 80.2566 63.8109C88.6304 77.3316 97.034 90.8556 105.691 104.197C109.703 110.376 113.926 116.618 119.331 121.679C121.148 123.382 123.03 125.04 125.238 126.218C130.592 129.072 132.105 129.009 136.847 126.223C142.301 123.017 143.174 119.187 144.401 113.414C151.359 80.6331 156.078 47.6712 164.816 15.2395C174.288 -19.9239 185.979 -55.0774 201.814 -87.9282C202.087 -88.4948 203.068 -88.0922 202.841 -87.4942Z" fill-opacity="0.45" stroke-width="1.79684"/>
<path d="M190.459 -90.3154C177.649 -61.2613 168.904 -30.7827 160.868 -0.128357C157.078 14.3283 153.402 28.8164 149.327 43.1968C145.759 55.7882 143.029 70.8362 136.083 82.099C131.562 89.4242 122.602 94.2614 114.632 89.0399C110.594 86.3961 107.991 81.8158 105.531 77.8152C101.194 70.7583 96.9437 63.6485 92.6583 56.5618C77.0984 30.8307 61.4093 5.10631 48.1801 -21.9301C34.1095 -50.6877 21.7848 -81.9151 18.5794 -114.012C18.3939 -115.879 21.5446 -116.32 21.8759 -114.458C26.6633 -87.5639 34.0167 -62.0913 45.2216 -37.1173C56.0802 -12.9169 69.2745 10.1323 82.8168 32.9047C89.7875 44.6297 96.8477 56.3017 103.871 67.9936C106.82 72.9003 110.143 81.3138 114.937 84.7975C126.854 93.4546 133.989 80.2586 137.353 70.8279C146.38 45.5342 152.507 19.1968 159.503 -6.70152C167.289 -35.532 175.878 -64.2133 189.346 -90.9681C189.725 -91.7202 190.785 -91.0592 190.459 -90.3154Z" fill-opacity="0.45" stroke-width="1.79684"/>
<path d="M178.133 -88.9744C168.496 -62.758 158.624 -36.7188 150.486 -9.97726C146.417 3.38274 142.682 16.8455 139.263 30.3877C136.746 40.3518 136.042 54.7869 129.497 63.1375C125.381 68.3887 118.074 70.6466 112.629 66.0596C109.712 63.6013 108.272 60.053 106.799 56.6356C103.556 49.1066 100.534 41.4865 97.2444 33.9774C86.2665 8.92387 71.5895 -14.4085 61.0788 -39.6144C55.1053 -53.9352 50.8993 -68.8971 47.3709 -83.9832C45.6597 -91.3018 44.0562 -98.6519 42.5686 -106.019C41.5531 -111.046 40.6321 -115.217 43.0208 -119.947C44.0214 -121.926 46.8507 -120.192 45.9612 -118.229C43.0059 -111.719 47.5465 -100.547 49.0275 -93.79C50.6376 -86.4515 52.3405 -79.1296 54.287 -71.8706C58.1782 -57.3676 63.1014 -43.2505 69.7143 -29.7547C82.4929 -3.67909 96.2107 21.5252 107.315 48.4274C108.825 52.0884 110.015 56.0475 112.016 59.4683C114.32 64.8388 118.816 65.7813 125.507 62.2993C127.649 59.9967 129.096 57.3114 129.852 54.2468C131.967 47.6704 133.084 40.6748 134.748 33.9708C138.24 19.9117 142.104 5.95038 146.343 -7.90161C154.822 -35.6106 164.462 -63.2881 176.818 -89.5277C177.163 -90.2582 178.417 -89.7414 178.133 -88.9744Z" fill-opacity="0.45" stroke-width="1.79684"/>
<path d="M167.773 -89.5793C155.59 -63.232 143.772 -37.1216 135.06 -9.36298C130.861 4.01856 128.427 17.9203 124.306 31.2687C122.308 37.7424 117.163 41.2294 110.691 36.8943C106.463 34.0616 104.626 28.3697 102.594 23.9981C99.5704 17.4995 96.5571 10.9959 93.5919 4.46914C88.011 -7.80583 82.5908 -20.157 77.5781 -32.6738C67.1668 -58.6749 57.8819 -85.8836 54.3948 -113.785C54.1629 -115.628 57.2921 -116.049 57.6483 -114.225C67.2082 -65.1834 85.9205 -20.1586 107.101 24.9009C107.886 26.5707 108.652 29.5409 110.094 30.7999C120.275 39.6822 121.044 28.7424 122.04 24.4205C123.388 18.568 124.852 12.7419 126.431 6.94733C129.59 -4.64846 133.2 -16.1117 137.293 -27.411C145.135 -49.052 154.357 -70.7229 166.362 -90.4043C166.919 -91.317 168.209 -90.5202 167.773 -89.5793Z" fill-opacity="0.45" stroke-width="1.79684"/>
<path d="M156.142 -90.6176C146.504 -69.278 137.002 -47.9733 129.382 -25.8087C125.859 -15.5581 123.715 -4.43109 119.592 5.55454C117.929 9.58325 114.583 13.6699 109.794 11.5164C104.11 8.96039 102.127 -0.857931 99.9272 -6.15224C95.6285 -16.5023 91.6429 -26.9849 87.9819 -37.5785C80.7064 -58.648 74.0156 -80.4001 70.2371 -102.397C69.8991 -104.355 72.7534 -105.232 73.2718 -103.234C77.877 -85.4591 81.9952 -67.648 87.5711 -50.1317C90.3508 -41.3935 93.3524 -32.7265 96.5661 -24.139C98.3519 -19.3681 100.202 -14.6221 102.124 -9.90265C103.689 -6.05616 105.384 1.83892 108.395 4.76271C108.843 6.39772 110.112 6.81848 112.204 6.02831C114.67 7.28066 116.022 6.74228 116.261 4.41319C117.581 2.47006 118.075 -1.17764 118.717 -3.3444C120.026 -7.7508 121.398 -12.139 122.831 -16.5073C125.695 -25.2439 128.792 -33.9059 132.139 -42.4702C138.675 -59.2013 145.994 -75.7303 154.873 -91.3581C155.348 -92.1979 156.521 -91.4624 156.142 -90.6176Z" fill-opacity="0.45" stroke-width="1.79684"/>
<path d="M-50.4905 953.618C-11.3845 907.486 22.7303 858.496 51.4365 805.226C78.8754 754.309 102.844 701.676 126.45 648.902C138.892 621.085 152.202 592.901 156.577 562.452C161.007 531.62 155.288 500.552 146.653 470.953C130.232 414.657 106.831 360.334 71.3763 313.331C33.7281 263.418 -13.4088 221.759 -60.0785 180.56C-61.9256 178.928 -59.2138 176.234 -57.3751 177.856C-14.7804 215.46 28.0793 253.368 63.9384 297.659C100.55 342.874 125.482 393.978 143.762 448.997C153.302 477.717 161.439 507.529 161.871 537.99C162.289 567.251 153.804 594.874 142.574 621.607C119.234 677.167 93.8357 732.392 65.8335 785.759C34.2118 846.022 -2.6827 904.93 -49.1984 954.911C-50.0084 955.783 -51.2425 954.504 -50.4905 953.618Z" fill-opacity="0.45" stroke-width="1.79684"/>
<path d="M-41.088 924.915C26.2438 826.567 82.369 721.051 125.018 609.721C134.411 585.204 143.398 560.018 140.845 533.381C138.734 511.354 133.546 489.428 127.636 468.145C114.513 420.895 90.1664 377.251 61.369 337.81C25.2465 288.341 -18.1466 244.693 -58.977 199.199C-60.6021 197.387 -57.9301 194.696 -56.2951 196.519C13.3161 274.075 94.4452 350.617 127.029 452.728C133.69 473.6 138.875 495.122 142.422 516.741C146.202 539.775 145.41 560.651 138.433 583.182C129.614 611.659 117.378 639.362 105.451 666.655C93.2227 694.639 80.1459 722.253 66.2343 749.441C34.9704 810.55 -0.401714 869.475 -39.9881 925.557C-40.4552 926.22 -41.5552 925.595 -41.088 924.915Z" fill-opacity="0.45" stroke-width="1.79684"/>
<path d="M-41.6058 907.667C-15.5368 863.573 10.2124 819.38 34.1213 774.062C57.5381 729.676 80.9683 684.564 99.2896 637.79C117.459 591.401 127.736 542.182 116.539 492.771C105.863 445.654 80.8473 402.262 53.2212 363.133C21.4521 318.133 -16.0371 277.586 -53.3656 237.216C-55.0371 235.407 -52.3352 232.691 -50.6555 234.506C14.2179 304.652 85.8766 379.737 115.177 473.007C130.164 520.713 126.579 568.973 111.02 616.049C95.2626 663.714 71.5492 709.003 48.5713 753.494C21.2748 806.344 -7.83559 858.557 -40.2193 908.477C-40.7792 909.338 -42.1359 908.563 -41.6058 907.667Z" fill-opacity="0.45" stroke-width="1.79684"/>
<path d="M-39.828 887.863C-18.1456 845.973 4.71304 804.841 25.0338 762.235C45.5965 719.125 65.1635 675.336 82.3717 630.77C99.1359 587.357 109.136 542.922 96.7488 496.953C85.7047 455.975 62.1321 419.619 38.2149 385.09C23.3375 363.609 8.21828 342.296 -6.79494 320.91C-21.4338 300.056 -35.738 277.968 -58.0516 264.552C-60.1803 263.273 -58.2405 259.93 -56.1019 261.215C-38.42 271.845 -25.5751 287.796 -13.7309 304.367C0.619732 324.446 14.6523 344.758 28.8306 364.956C54.2552 401.175 80.5495 437.997 95.4932 480.041C110.776 523.04 108.363 565.901 94.1596 608.842C79.1961 654.076 58.6467 697.982 38.3905 741.039C14.8759 791.015 -9.63425 841.498 -38.6502 888.551C-39.1124 889.301 -40.2306 888.642 -39.828 887.863Z" fill-opacity="0.45" stroke-width="1.79684"/>
<path d="M-44.0082 862.327C-24.3268 826.284 -5.72219 789.719 11.4893 752.43C29.0635 714.353 46.1955 675.553 59.3418 635.694C72.2628 596.518 79.0629 555.78 71.0535 514.841C63.3489 475.448 44.9779 439.172 23.2209 405.772C11.3866 387.607 -1.48807 370.15 -14.4886 352.811C-28.0706 334.692 -41.3345 316.064 -59.2583 301.925C-61.2097 300.387 -58.4598 297.67 -56.5283 299.194C-41.1208 311.35 -29.2351 326.82 -17.5118 342.4C-5.38757 358.511 6.73335 374.643 18.1469 391.271C40.9674 424.523 61.111 460.263 71.4743 499.501C92.9331 580.754 57.0624 659.637 24.079 732.507C3.91723 777.046 -18.3715 820.678 -42.9364 862.953C-43.3373 863.645 -44.3908 863.029 -44.0082 862.327Z" fill-opacity="0.45" stroke-width="1.79684"/>
<path d="M-40.2631 832.249C-8.28354 773.273 14.3249 711.527 32.6198 647.091C41.5634 615.587 49.0129 584.689 45.337 551.707C41.6562 518.693 29.3978 487.116 13.3625 458.229C-4.27471 426.453 -26.8699 398.36 -48.1002 369.024C-49.2846 367.388 -46.5645 365.261 -45.2807 366.848C-5.14936 416.469 35.0599 472.717 46.9389 536.708C52.8577 568.593 49.4469 599.199 40.9671 630.261C31.8147 663.796 21.6651 697.201 9.57232 729.799C-3.64688 765.439 -19.3989 800.374 -39.4133 832.746C-39.7462 833.285 -40.5679 832.808 -40.2631 832.249Z" fill-opacity="0.45" stroke-width="1.79684"/>
<path d="M-42.481 814.948C-27.8438 788.881 -16.7003 760.408 -6.58381 732.328C3.17653 705.237 11.1727 677.477 15.8706 649.035C24.5575 596.455 21.0837 541.223 -1.73014 492.459C-13.7616 466.743 -30.8256 445.786 -51.7461 426.83C-53.1425 425.566 -51.2557 423.02 -49.6986 424.178C-10.1652 453.583 12.2527 503.826 20.3184 551.235C29.9976 608.129 19.2085 666.176 0.723198 720.174C-4.57111 735.641 -10.5363 750.88 -16.909 765.933C-24.0868 782.881 -31.137 800.223 -41.2502 815.667C-41.7505 816.429 -42.9316 815.753 -42.481 814.948Z" fill-opacity="0.45" stroke-width="1.79684"/>
<path d="M-41.5024 791.508C-31.5615 764.612 -22.1507 737.468 -13.5963 710.097C-5.11317 682.962 2.49201 655.258 4.86418 626.825C9.35009 573.106 -8.80891 524.031 -46.0943 485.439C-47.7409 483.736 -45.2313 481.245 -43.5035 482.848C-5.92156 517.672 12.1546 570.121 9.01546 620.642C7.22806 649.432 -0.0888786 677.551 -8.71118 704.964C-17.963 734.382 -28.477 763.342 -40.1142 791.891C-40.4555 792.729 -41.8271 792.389 -41.5024 791.508Z" fill-opacity="0.45" stroke-width="1.79684"/>
</svg>
